<?xml version="1.0" standalone="no"?>
<!DOCTYPE svg PUBLIC "-//W3C//DTD SVG 20010904//EN"
 "http://www.w3.org/TR/2001/REC-SVG-20010904/DTD/svg10.dtd">
<svg version="1.0" xmlns="http://www.w3.org/2000/svg"
 width="1540.000000pt" height="655.000000pt" viewBox="0 0 1540.000000 655.000000"
 preserveAspectRatio="xMidYMid meet">

<g transform="translate(0.000000,655.000000) scale(0.100000,-0.100000)"
fill="#000000" stroke="none">
<path d="M1023 6543 l1027 -3 0 -375 0 -375 -1028 -3 c-565 -1 2440 -2 6678
-2 4238 0 7155 1 6483 2 l-1223 3 0 375 0 375 1223 3 c672 1 -2245 2 -6483 2
-4238 0 -7243 -1 -6677 -2z m11927 -378 l0 -375 -5445 0 -5445 0 0 375 0 375
5445 0 5445 0 0 -375z"/>
<path d="M8614 6180 c0 -190 2 -267 3 -172 2 94 2 250 0 345 -1 94 -3 17 -3
-173z"/>
<path d="M10064 6180 c0 -190 2 -267 3 -172 2 94 2 250 0 345 -1 94 -3 17 -3
-173z"/>
<path d="M11504 6180 c0 -190 2 -267 3 -172 2 94 2 250 0 345 -1 94 -3 17 -3
-173z"/>
<path d="M3127 6403 c-4 -3 -17 -6 -29 -7 -15 -1 -24 -8 -26 -22 -3 -20 1 -21
57 -20 42 0 61 4 61 13 0 7 4 13 9 13 5 0 7 -10 4 -22 -4 -23 -4 -23 12 -3 17
20 17 20 10 -2 -7 -26 12 -32 33 -11 19 19 15 25 -28 42 -55 22 -69 21 -62 -6
3 -14 2 -19 -6 -14 -7 4 -12 13 -12 21 0 16 -14 27 -23 18z"/>
<path d="M3031 6371 c-7 -5 -11 -13 -7 -19 3 -6 1 -14 -5 -18 -8 -4 -9 -3 -5
4 4 7 3 12 -3 12 -19 0 -23 -22 -7 -38 14 -14 17 -14 36 3 11 10 20 29 20 42
0 25 -7 28 -29 14z"/>
<path d="M3259 6334 c-11 -14 -11 -18 2 -28 8 -6 18 -19 22 -29 6 -15 10 -16
27 -5 22 14 21 34 -2 32 -8 -1 -14 7 -14 19 1 26 -17 32 -35 11z"/>
<path d="M2970 6305 c-11 -13 -10 -18 6 -30 16 -12 20 -11 28 2 5 10 3 20 -6
30 -13 12 -16 12 -28 -2z"/>
<path d="M3195 6298 c11 -6 27 -16 35 -22 9 -6 5 -1 -8 12 -13 12 -28 22 -35
22 -7 0 -3 -6 8 -12z"/>
<path d="M3119 6278 c-8 -15 -7 -23 8 -34 33 -24 69 -10 59 24 -9 28 -54 35
-67 10z"/>
<path d="M3021 6229 c-22 -64 -1 -83 24 -22 11 26 11 34 0 43 -10 8 -15 4 -24
-21z"/>
<path d="M10852 6194 l-2 -61 31 1 c39 1 59 27 39 51 -8 10 -23 15 -36 12 -19
-3 -24 1 -27 27 -2 17 -5 4 -5 -30z m63 -29 c0 -22 -31 -33 -47 -17 -17 17 -1
44 24 40 15 -2 23 -10 23 -23z"/>
<path d="M7670 6230 c0 -5 5 -10 11 -10 5 0 7 5 4 10 -3 6 -8 10 -11 10 -2 0
-4 -4 -4 -10z"/>
<path d="M7750 6193 l-1 -48 -30 35 -31 35 29 -42 c15 -24 31 -43 36 -43 4 0
7 25 7 55 0 30 -2 55 -5 55 -3 0 -5 -21 -5 -47z"/>
<path d="M9151 6183 c1 -65 5 -61 12 10 2 26 1 47 -4 47 -5 0 -9 -26 -8 -57z"/>
<path d="M9248 6233 c-2 -5 -1 -30 3 -58 l6 -50 1 58 c2 52 -2 69 -10 50z"/>
<path d="M10513 6185 c0 -33 2 -48 4 -33 4 23 10 27 41 31 l37 4 -37 1 c-32 2
-37 6 -41 30 -2 15 -4 0 -4 -33z"/>
<path d="M12071 6183 c1 -65 5 -61 12 10 2 26 1 47 -4 47 -5 0 -9 -26 -8 -57z"/>
<path d="M12168 6233 c-2 -5 -1 -30 3 -58 l6 -50 1 58 c2 52 -2 69 -10 50z"/>
<path d="M12247 6234 c-3 -5 1 -15 9 -22 16 -14 18 -5 5 17 -5 7 -11 9 -14 5z"/>
<path d="M12327 6233 c-17 -16 -5 -42 23 -52 36 -12 41 -5 5 9 -34 13 -34 44
0 38 13 -3 22 -1 19 3 -6 11 -38 12 -47 2z"/>
<path d="M3253 6214 c-7 -7 -13 -21 -13 -30 0 -10 -8 -26 -17 -37 -10 -11 -12
-17 -5 -13 7 4 19 2 27 -4 11 -10 15 -7 20 13 4 13 5 38 3 55 -2 24 -5 27 -15
16z"/>
<path d="M9226 6195 c-9 -26 -7 -32 5 -12 6 10 9 21 6 23 -2 3 -7 -2 -11 -11z"/>
<path d="M12146 6195 c-9 -26 -7 -32 5 -12 6 10 9 21 6 23 -2 3 -7 -2 -11 -11z"/>
<path d="M2910 6186 c0 -7 7 -13 15 -13 8 0 15 4 15 8 0 4 -7 9 -15 13 -9 3
-15 0 -15 -8z"/>
<path d="M2950 6186 c0 -9 5 -16 10 -16 6 0 10 4 10 9 0 6 -4 13 -10 16 -5 3
-10 -1 -10 -9z"/>
<path d="M7838 6173 c-2 -21 -8 -28 -25 -27 -12 0 -20 -3 -17 -8 3 -4 16 -7
29 -6 21 2 25 8 25 35 0 40 -7 43 -12 6z"/>
<path d="M7887 6193 c-3 -5 8 -8 23 -8 15 0 26 3 23 8 -2 4 -13 7 -23 7 -10 0
-21 -3 -23 -7z"/>
<path d="M8046 6192 c-2 -4 8 -8 22 -7 20 0 27 -5 27 -20 0 -15 -7 -20 -27
-20 -16 1 -24 -3 -19 -8 26 -26 75 19 52 47 -14 17 -46 22 -55 8z"/>
<path d="M9293 6168 c2 -28 6 -33 30 -34 25 -1 27 2 26 35 -1 36 -1 36 -8 6
-9 -42 -38 -45 -45 -6 l-6 31 3 -32z"/>
<path d="M9382 6153 c-1 -30 -7 -53 -14 -56 -10 -4 -10 -6 0 -6 18 -1 24 20
19 70 l-4 44 -1 -52z"/>
<path d="M9427 6193 c-3 -5 8 -8 23 -8 15 0 26 3 23 8 -2 4 -13 7 -23 7 -10 0
-21 -3 -23 -7z"/>
<path d="M9506 6188 c3 -4 11 -5 19 -1 21 7 19 12 -4 10 -11 0 -18 -5 -15 -9z"/>
<path d="M10629 6184 c-23 -28 26 -73 52 -47 5 5 -3 9 -19 8 -20 0 -27 5 -27
20 0 15 7 20 27 20 14 -1 24 3 22 7 -9 14 -41 9 -55 -8z"/>
<path d="M10754 6187 c8 -7 17 -23 19 -37 3 -20 5 -19 6 8 1 26 5 33 18 30 10
-2 21 -16 24 -33 6 -27 7 -28 8 -5 1 38 -10 48 -52 48 -31 0 -35 -2 -23 -11z"/>
<path d="M10951 6184 c0 -11 3 -14 6 -6 3 7 2 16 -1 19 -3 4 -6 -2 -5 -13z"/>
<path d="M11010 6185 c-19 -22 -8 -31 30 -24 l35 6 -33 2 c-21 1 -31 5 -26 12
3 6 15 9 25 6 11 -3 17 -1 13 4 -8 14 -30 11 -44 -6z"/>
<path d="M3320 6180 c0 -5 7 -7 15 -4 8 4 15 8 15 10 0 2 -7 4 -15 4 -8 0 -15
-4 -15 -10z"/>
<path d="M9181 6185 c0 -5 6 -21 13 -34 12 -21 14 -22 20 -5 4 10 4 15 0 11
-5 -4 -14 3 -21 15 -7 13 -12 19 -12 13z"/>
<path d="M12101 6185 c0 -5 6 -21 13 -34 12 -21 14 -22 20 -5 4 10 4 15 0 11
-5 -4 -14 3 -21 15 -7 13 -12 19 -12 13z"/>
<path d="M12217 6176 c-4 -10 -7 -19 -7 -20 0 -1 14 0 32 2 23 3 35 0 46 -14
14 -18 14 -18 8 -1 -3 10 -6 21 -6 23 0 2 -13 4 -29 4 -16 0 -31 5 -33 12 -3
7 -7 5 -11 -6z"/>
<path d="M7888 6163 c12 -2 30 -2 40 0 9 3 -1 5 -23 4 -22 0 -30 -2 -17 -4z"/>
<path d="M7970 6163 c0 -15 18 -35 23 -27 3 5 -1 15 -9 22 -8 7 -14 9 -14 5z"/>
<path d="M9428 6163 c12 -2 30 -2 40 0 9 3 -1 5 -23 4 -22 0 -30 -2 -17 -4z"/>
<path d="M3108 6153 c-12 -3 -18 -14 -18 -34 0 -33 -14 -37 -44 -12 -15 13
-14 10 3 -10 15 -17 28 -24 34 -18 5 5 23 7 41 4 24 -3 34 0 45 18 12 20 11
24 -10 40 -13 10 -26 18 -29 18 -3 -1 -13 -3 -22 -6z"/>
<path d="M2926 6108 c8 -24 34 -62 57 -86 113 -115 309 -78 371 70 22 52 20
58 -16 58 -28 0 -36 -6 -51 -40 -25 -53 -77 -84 -142 -84 -65 0 -113 27 -143
82 -20 36 -28 42 -57 42 l-34 0 15 -42z m116 -77 c-1 -7 2 -10 7 -7 14 9 41
-4 41 -19 0 -8 -5 -17 -12 -21 -8 -5 -9 -2 -5 9 7 19 -9 23 -17 5 -3 -9 -9 -7
-20 6 -9 11 -16 16 -16 11 0 -4 -2 -6 -5 -3 -3 3 -3 13 1 22 7 19 31 16 26 -3z
m232 2 c8 -19 -8 -40 -18 -24 -12 19 -29 12 -23 -9 6 -25 -1 -26 -20 -2 -13
16 -14 15 -8 -5 4 -14 2 -23 -4 -23 -6 0 -11 8 -12 18 0 14 -2 14 -7 2 -10
-21 -42 -25 -42 -5 0 8 -7 15 -15 15 -18 0 -20 -16 -2 -23 7 -3 5 -6 -5 -6
-12 -1 -18 6 -18 19 0 17 7 20 48 20 29 0 58 7 77 19 38 24 41 25 49 4z"/>
<path d="M3250 6031 c0 -5 5 -13 10 -16 6 -3 10 -2 10 4 0 5 -4 13 -10 16 -5
3 -10 2 -10 -4z"/>
<path d="M7887 6138 c2 -5 13 -8 23 -8 10 0 21 3 23 8 3 4 -8 7 -23 7 -15 0
-26 -3 -23 -7z"/>
<path d="M9427 6138 c2 -5 13 -8 23 -8 10 0 21 3 23 8 3 4 -8 7 -23 7 -15 0
-26 -3 -23 -7z"/>
<path d="M12327 6138 c2 -5 13 -8 23 -8 10 0 21 3 23 8 3 4 -8 7 -23 7 -15 0
-26 -3 -23 -7z"/>
<path d="M11028 6133 c7 -3 16 -2 19 1 4 3 -2 6 -13 5 -11 0 -14 -3 -6 -6z"/>
<path d="M3229 6093 c-13 -16 -12 -17 4 -4 16 13 21 21 13 21 -2 0 -10 -8 -17
-17z"/>
<path d="M14722 6388 c-12 -6 -25 -22 -28 -34 -4 -13 -15 -24 -27 -26 -24 -3
-28 -22 -42 -199 l-7 -89 142 0 142 0 -7 89 c-14 179 -18 196 -42 199 -13 2
-23 9 -23 16 0 21 -40 56 -63 55 -12 0 -32 -5 -45 -11z m76 -20 c26 -26 13
-38 -38 -38 -34 0 -50 4 -50 13 0 21 22 37 50 37 14 0 31 -5 38 -12z m-88 -58
c0 -5 -4 -10 -10 -10 -5 0 -10 5 -10 10 0 6 5 10 10 10 6 0 10 -4 10 -10z
m120 0 c0 -5 -4 -10 -10 -10 -5 0 -10 5 -10 10 0 6 5 10 10 10 6 0 10 -4 10
-10z m-40 -105 c14 -37 -4 -77 -33 -73 -17 2 -23 11 -25 36 -4 45 3 62 28 62
13 0 24 -10 30 -25z"/>
<path d="M14744 6207 c-9 -25 0 -62 16 -62 10 0 15 10 15 34 0 36 -21 54 -31
28z"/>
<path d="M13673 6326 c-84 -38 -96 -168 -21 -220 12 -9 29 -16 38 -15 13 0 13
1 0 6 -35 13 -41 25 -24 44 12 13 31 19 64 19 33 0 52 -6 64 -19 17 -19 11
-31 -24 -44 -12 -4 -12 -6 1 -6 28 -2 77 53 84 93 9 46 -11 102 -46 128 -34
26 -96 32 -136 14z m96 -78 c17 -43 -31 -85 -64 -58 -18 15 -19 52 -3 68 20
20 58 14 67 -10z"/>
<path d="M550 6215 c0 -68 3 -85 15 -85 10 0 15 15 17 58 l3 57 20 -55 c27
-74 45 -75 72 -3 l21 58 1 -57 c1 -45 5 -58 16 -58 12 0 15 16 15 85 0 76 -2
85 -19 85 -14 0 -25 -16 -41 -60 -12 -33 -25 -60 -29 -60 -3 0 -17 27 -29 60
-18 44 -29 60 -43 60 -17 0 -19 -8 -19 -85z"/>
<path d="M760 6215 c0 -69 3 -85 15 -85 12 0 15 16 15 85 0 69 -3 85 -15 85
-12 0 -15 -16 -15 -85z"/>
<path d="M850 6280 c-27 -27 -35 -65 -20 -101 14 -34 37 -49 73 -49 25 0 77
34 77 51 0 15 -26 10 -40 -7 -19 -22 -62 -13 -79 17 -13 24 -13 29 2 53 20 29
57 35 77 11 14 -17 40 -20 40 -6 0 18 -53 51 -81 51 -16 0 -38 -9 -49 -20z"/>
<path d="M1010 6215 c0 -67 3 -85 14 -85 10 0 16 13 18 38 3 35 5 37 38 37 33
0 35 -2 38 -37 2 -25 8 -38 18 -38 11 0 14 18 14 85 0 69 -3 85 -15 85 -10 0
-15 -11 -15 -35 0 -34 -1 -35 -40 -35 -39 0 -40 1 -40 35 0 24 -5 35 -15 35
-12 0 -15 -16 -15 -85z"/>
<path d="M1180 6215 c0 -69 3 -85 15 -85 12 0 15 16 15 85 0 69 -3 85 -15 85
-12 0 -15 -16 -15 -85z"/>
<path d="M1250 6215 c0 -69 3 -85 15 -85 10 0 15 11 15 35 0 31 3 35 25 35 16
0 25 6 25 15 0 9 -9 15 -25 15 -18 0 -25 5 -25 20 0 16 7 20 35 20 24 0 35 5
35 15 0 11 -12 15 -50 15 l-50 0 0 -85z"/>
<path d="M1370 6235 c0 -52 4 -69 20 -85 25 -25 72 -26 93 -2 23 25 24 152 2
152 -12 0 -15 -14 -15 -65 0 -52 -4 -67 -16 -72 -33 -12 -49 11 -52 76 -2 45
-7 61 -17 61 -12 0 -15 -15 -15 -65z"/>
<path d="M14020 6215 l0 -55 38 2 c36 1 36 1 5 5 -43 6 -47 40 -5 46 l27 4
-27 2 c-21 1 -28 6 -28 20 0 15 8 21 33 24 31 4 31 4 -5 5 l-38 2 0 -55z"/>
<path d="M14111 6190 l1 -35 7 30 c5 22 12 30 28 29 12 0 20 3 17 8 -3 4 -16
7 -29 6 -22 -2 -25 -7 -24 -38z"/>
<path d="M14198 6223 c6 -2 18 -2 25 0 6 3 1 5 -13 5 -14 0 -19 -2 -12 -5z"/>
<path d="M14256 6218 c3 -4 11 -5 19 -1 21 7 19 12 -4 10 -11 0 -18 -5 -15 -9z"/>
<path d="M14317 6223 c-3 -5 5 -8 18 -8 13 0 21 3 18 8 -2 4 -10 7 -18 7 -8 0
-16 -3 -18 -7z"/>
<path d="M14391 6214 c0 -11 3 -14 6 -6 3 7 2 16 -1 19 -3 4 -6 -2 -5 -13z"/>
<path d="M14316 6191 c-3 -4 6 -6 19 -3 14 2 25 6 25 8 0 8 -39 4 -44 -5z"/>
<path d="M14330 6170 c-23 -7 -23 -8 -3 -9 12 -1 25 4 28 9 3 6 5 10 3 9 -2
-1 -14 -5 -28 -9z"/>
<path d="M13718 6083 c6 -2 18 -2 25 0 6 3 1 5 -13 5 -14 0 -19 -2 -12 -5z"/>
<path d="M7169 5295 c-56 -18 -113 -77 -128 -132 -14 -50 -14 -146 1 -194 18
-62 71 -116 130 -134 133 -39 251 4 293 107 l15 37 -62 19 -62 19 -17 -37 c-9
-20 -24 -40 -34 -43 -33 -13 -81 -7 -103 13 -29 27 -35 57 -30 137 4 57 8 69
32 89 39 35 90 32 125 -5 27 -29 28 -29 81 -18 29 7 55 17 57 23 6 17 -54 92
-88 109 -44 23 -154 28 -210 10z"/>
<path d="M6180 5065 l0 -235 55 0 55 0 0 173 c0 98 4 166 9 157 5 -8 26 -86
47 -172 l38 -158 53 0 c60 0 46 -27 105 205 l33 130 3 -167 2 -168 60 0 60 0
0 235 0 235 -94 0 -94 0 -32 -132 c-18 -73 -35 -137 -38 -142 -3 -6 -22 53
-42 130 l-37 139 -91 3 -92 3 0 -236z"/>
<path d="M6800 5065 l0 -235 70 0 70 0 0 235 0 235 -70 0 -70 0 0 -235z"/>
<path d="M7550 5065 l0 -235 70 0 70 0 0 95 0 95 85 0 85 0 0 -95 0 -95 65 0
65 0 0 235 0 235 -65 0 -65 0 0 -85 0 -85 -85 0 -85 0 0 85 0 85 -70 0 -70 0
0 -235z"/>
<path d="M8100 5065 l0 -235 70 0 70 0 0 235 0 235 -70 0 -70 0 0 -235z"/>
<path d="M8350 5065 l0 -235 70 0 70 0 0 95 0 95 90 0 90 0 0 55 0 55 -90 0
-90 0 0 30 0 30 105 0 105 0 0 55 0 55 -175 0 -175 0 0 -235z"/>
<path d="M8782 5122 c3 -174 4 -180 30 -219 42 -64 130 -93 243 -78 69 8 114
38 143 95 20 41 22 58 22 212 l0 168 -70 0 -70 0 0 -163 c0 -158 -1 -164 -23
-185 -32 -30 -81 -29 -112 3 -24 24 -25 28 -25 185 l0 160 -71 0 -71 0 4 -178z"/>
<path d="M6884 4445 c0 -49 1 -71 3 -48 2 23 2 64 0 90 -2 26 -3 8 -3 -42z"/>
<path d="M8400 4486 l0 -44 -29 11 c-25 9 -33 8 -50 -8 -43 -38 -11 -87 52
-83 l37 3 0 83 c0 45 -2 82 -5 82 -3 0 -5 -20 -5 -44z m-16 -52 c9 -8 16 -19
16 -24 0 -13 -30 -40 -45 -40 -13 0 -45 26 -45 36 0 3 5 14 10 25 13 23 43 25
64 3z"/>
<path d="M6762 4438 c1 -46 3 -64 5 -41 4 38 7 42 35 45 67 7 62 70 -6 76
l-36 3 2 -83z m68 57 c19 -23 4 -45 -30 -45 -27 0 -30 3 -30 30 0 25 4 30 24
30 13 0 29 -7 36 -15z"/>
<path d="M8111 4478 c0 -10 -7 -18 -13 -18 -10 0 -10 -2 -1 -8 6 -4 13 -25 15
-47 2 -31 8 -41 23 -43 18 -2 18 -2 3 8 -12 7 -18 23 -18 45 0 24 5 35 18 38
15 4 15 5 0 6 -9 0 -19 9 -21 19 -4 16 -5 16 -6 0z"/>
<path d="M6946 4452 c-2 -4 7 -8 21 -7 14 0 28 -6 30 -12 3 -8 -4 -13 -19 -13
-33 0 -51 -14 -46 -36 2 -15 12 -19 41 -19 36 -1 37 0 37 35 0 20 -5 41 -12
48 -14 14 -44 16 -52 4z m52 -54 c-7 -21 -36 -34 -49 -21 -6 6 -8 16 -5 22 10
15 59 14 54 -1z"/>
<path d="M7041 4454 c-1 -6 6 -28 14 -47 19 -46 19 -62 -1 -81 -8 -9 -11 -16
-6 -16 5 0 14 6 19 13 16 20 56 127 50 133 -3 3 -10 -11 -17 -30 -6 -20 -15
-36 -19 -36 -5 0 -15 17 -24 38 -8 20 -15 32 -16 26z"/>
<path d="M7154 4435 c-15 -23 -15 -27 0 -50 17 -26 59 -34 72 -13 5 8 2 9 -11
4 -24 -9 -55 2 -55 20 0 10 12 14 40 14 44 0 55 21 21 40 -31 16 -49 12 -67
-15z m66 0 c11 -13 7 -15 -24 -15 -34 0 -44 8 -29 23 11 12 40 8 53 -8z"/>
<path d="M7272 4405 c1 -43 2 -45 5 -13 3 23 12 43 24 52 20 14 20 14 -5 12
-25 -1 -26 -4 -24 -51z"/>
<path d="M7356 4452 c-2 -4 7 -8 21 -7 35 0 41 -23 7 -27 -34 -4 -56 -34 -34
-48 8 -5 27 -9 43 -8 25 2 27 6 27 44 0 29 -5 44 -16 48 -22 8 -42 8 -48 -2z
m52 -59 c-4 -20 -35 -30 -50 -15 -15 15 0 32 28 32 19 0 25 -5 22 -17z"/>
<path d="M7462 4448 c-19 -19 -14 -28 18 -39 17 -6 30 -15 30 -20 0 -16 -29
-22 -45 -9 -10 8 -15 9 -15 1 0 -6 11 -13 24 -17 52 -13 63 26 16 51 -35 18
-30 40 7 30 16 -4 22 -2 18 5 -8 14 -38 13 -53 -2z"/>
<path d="M7612 4380 c0 -41 3 -60 5 -42 4 28 7 31 28 26 36 -9 65 12 65 46 0
34 -23 50 -69 47 l-31 -2 2 -75z m78 55 c26 -32 -13 -81 -47 -59 -35 22 -23
74 17 74 10 0 23 -7 30 -15z"/>
<path d="M7756 4452 c-2 -4 7 -8 21 -7 35 0 41 -23 7 -27 -34 -4 -56 -34 -34
-48 8 -5 27 -9 43 -8 25 2 27 6 27 44 0 29 -5 44 -16 48 -22 8 -42 8 -48 -2z
m52 -59 c-4 -20 -35 -30 -50 -15 -15 15 0 32 28 32 19 0 25 -5 22 -17z"/>
<path d="M7862 4405 c1 -48 2 -48 5 -9 3 31 10 44 26 52 21 10 21 11 -5 9 -27
-1 -28 -3 -26 -52z"/>
<path d="M7946 4452 c-2 -4 7 -8 21 -7 14 0 28 -6 30 -12 3 -8 -4 -13 -19 -13
-33 0 -51 -14 -46 -36 2 -15 12 -19 41 -19 36 -1 37 0 37 35 0 20 -5 41 -12
48 -14 14 -44 16 -52 4z m52 -54 c-7 -21 -36 -34 -49 -21 -6 6 -8 16 -5 22 10
15 59 14 54 -1z"/>
<path d="M8187 4442 c-22 -24 -21 -45 1 -65 27 -24 59 -21 78 8 15 23 15 27 0
50 -20 30 -56 33 -79 7z m67 -8 c9 -8 16 -19 16 -24 0 -13 -30 -40 -45 -40
-13 0 -45 26 -45 36 0 3 5 14 10 25 13 23 43 25 64 3z"/>
<path d="M8458 4449 c-25 -14 -24 -65 1 -79 27 -14 47 -13 65 6 44 44 -12 105
-66 73z m62 -14 c26 -32 -13 -81 -47 -59 -35 22 -23 74 17 74 10 0 23 -7 30
-15z"/>
<path d="M8577 4453 c-14 -14 -7 -43 11 -42 10 0 12 3 5 6 -7 2 -13 12 -13 20
0 11 7 14 25 11 13 -3 22 -1 19 3 -6 11 -38 12 -47 2z"/>
<path d="M8617 4389 c5 -20 3 -21 -21 -15 -18 4 -25 3 -21 -4 15 -25 69 -1 58
26 -8 22 -22 16 -16 -7z"/>
<path d="M1480 3566 c0 -14 5 -28 10 -31 6 -3 10 -3 10 2 0 4 3 18 6 31 5 16
2 22 -10 22 -10 0 -16 -9 -16 -24z"/>
<path d="M3870 3300 l0 -289 93 -4 92 -3 -92 -2 c-73 -2 -93 -5 -93 -16 0 -10
13 -16 38 -19 l37 -4 -37 -1 c-66 -3 -41 -22 32 -24 148 -4 145 -5 147 17 1
11 4 63 8 115 3 52 8 105 10 116 5 24 13 124 23 292 l7 112 -132 0 -133 0 0
-290z m193 -337 c-7 -2 -19 -2 -25 0 -7 3 -2 5 12 5 14 0 19 -2 13 -5z"/>
<path d="M4303 3571 c-5 -13 -7 -37 -4 -55 5 -30 5 -29 13 14 9 52 4 75 -9 41z"/>
<path d="M5609 3573 c0 -10 -2 -45 -3 -78 -2 -33 -6 -134 -10 -225 -4 -91 -9
-192 -11 -225 -2 -33 -7 -116 -10 -185 -4 -69 -11 -188 -16 -265 -16 -218 -22
-381 -15 -374 4 4 9 62 12 130 3 68 9 140 14 159 11 40 16 121 26 375 3 99 8
187 9 196 7 37 17 509 11 509 -3 0 -6 -8 -7 -17z"/>
<path d="M5819 3573 c-13 -16 -12 -17 4 -4 9 7 17 15 17 17 0 8 -8 3 -21 -13z"/>
<path d="M6550 3578 c0 -4 9 -8 20 -8 11 0 20 4 20 8 0 4 -9 8 -20 8 -11 0
-20 -4 -20 -8z"/>
<path d="M10435 3567 c-3 -12 -2 -34 4 -47 9 -22 10 -19 10 23 1 51 -5 61 -14
24z"/>
<path d="M10954 3553 c3 -21 13 -126 22 -233 20 -243 37 -381 47 -380 4 0 122
0 262 0 l255 0 0 325 0 325 -296 0 -296 0 6 -37z"/>
<path d="M12030 3582 c0 -4 9 -8 20 -9 11 -1 20 2 20 8 0 5 -9 9 -20 9 -11 0
-20 -4 -20 -8z"/>
<path d="M4200 3561 c-13 -26 -13 -32 8 -59 l18 -23 2 26 c1 14 -3 25 -8 25
-6 0 -10 5 -10 11 0 5 5 7 10 4 6 -3 10 3 10 14 0 26 -16 27 -30 2z"/>
<path d="M5011 3564 c0 -11 3 -14 6 -6 3 7 2 16 -1 19 -3 4 -6 -2 -5 -13z"/>
<path d="M6417 3565 c-4 -8 -2 -17 3 -20 6 -4 10 -4 10 -1 0 2 3 11 6 20 3 9
2 16 -4 16 -5 0 -12 -7 -15 -15z"/>
<path d="M7130 3556 c7 -7 13 -7 20 0 6 6 3 10 -10 10 -13 0 -16 -4 -10 -10z"/>
<path d="M11670 3562 c0 -14 36 -43 43 -36 4 4 -3 15 -15 25 -24 21 -28 23
-28 11z"/>
<path d="M6540 3552 c0 -12 34 -42 48 -42 18 0 14 10 -10 31 -25 20 -38 24
-38 11z"/>
<path d="M6871 3544 c0 -11 3 -14 6 -6 3 7 2 16 -1 19 -3 4 -6 -2 -5 -13z"/>
<path d="M14980 3540 c0 -5 5 -10 10 -10 6 0 10 5 10 10 0 6 -4 10 -10 10 -5
0 -10 -4 -10 -10z"/>
<path d="M7130 3515 c13 -14 25 -23 27 -21 6 6 -30 46 -41 46 -5 0 1 -11 14
-25z"/>
<path d="M5762 3507 c13 -30 31 -31 36 -1 3 16 1 16 -7 4 -9 -13 -12 -12 -26
5 -14 19 -15 18 -3 -8z"/>
<path d="M6380 3505 c-7 -8 -8 -15 -2 -15 5 0 15 7 22 15 7 8 8 15 2 15 -5 0
-15 -7 -22 -15z"/>
<path d="M5000 3502 c0 -18 12 -42 21 -42 14 0 10 26 -6 40 -9 8 -15 8 -15 2z"/>
<path d="M11740 3501 c0 -6 5 -13 10 -16 6 -3 10 1 10 9 0 9 -4 16 -10 16 -5
0 -10 -4 -10 -9z"/>
<path d="M4160 3489 c0 -5 5 -7 10 -4 6 3 10 8 10 11 0 2 -4 4 -10 4 -5 0 -10
-5 -10 -11z"/>
<path d="M6610 3490 c0 -5 5 -10 11 -10 5 0 7 5 4 10 -3 6 -8 10 -11 10 -2 0
-4 -4 -4 -10z"/>
<path d="M13230 3490 c0 -5 -7 -10 -16 -10 -9 0 -21 -13 -27 -29 l-11 -30 -38
35 c-45 40 -82 44 -100 12 -7 -13 -11 -27 -10 -31 2 -5 -11 1 -27 12 -34 24
-51 27 -51 7 0 -7 -7 -19 -15 -26 -8 -7 -15 -20 -15 -30 0 -30 -23 -42 -48
-24 -26 18 -42 11 -42 -17 0 -10 -4 -19 -10 -19 -5 0 -10 5 -10 10 0 6 -6 10
-14 10 -10 0 -12 -11 -9 -44 3 -25 2 -57 -1 -72 -6 -23 -11 -26 -36 -20 -27 5
-30 3 -30 -19 0 -14 -8 -29 -21 -35 -12 -7 -18 -17 -15 -27 3 -8 -2 -27 -12
-41 -28 -41 -64 -131 -60 -153 2 -14 17 4 52 61 51 85 123 154 210 205 48 27
51 27 100 15 28 -7 60 -19 71 -26 11 -8 43 -14 71 -14 38 0 58 -5 75 -21 20
-17 21 -20 5 -15 -22 7 -142 26 -168 26 -30 0 -20 -19 15 -29 30 -9 30 -9 6
-10 -15 -1 -43 6 -62 14 -49 20 -85 19 -138 -6 -44 -21 -119 -85 -119 -102 0
-12 -26 -37 -33 -31 -2 3 -7 -2 -10 -11 -4 -8 -1 -15 5 -15 7 0 6 -5 -2 -15
-20 -25 -2 -30 23 -8 38 35 96 63 132 63 19 0 35 -4 35 -10 0 -5 -20 -10 -44
-10 -28 0 -46 -5 -49 -14 -3 -7 -27 -26 -54 -41 -75 -44 -112 -76 -138 -122
-44 -73 -43 -173 1 -173 8 0 17 -6 20 -14 7 -17 -44 -96 -61 -96 -7 0 -16 -12
-19 -26 -5 -17 -12 -24 -21 -20 -43 16 -60 -115 -30 -232 14 -53 14 -62 0 -88
-21 -40 -19 -51 10 -70 14 -9 40 -37 58 -63 l32 -46 0 -235 c0 -129 4 -293 9
-363 9 -120 8 -130 -11 -155 -32 -44 -74 -142 -71 -165 3 -19 27 -33 96 -53 8
-2 -6 -18 -34 -37 -58 -40 -64 -53 -25 -62 24 -5 38 0 77 30 56 43 147 90 223
116 30 11 72 29 95 42 258 148 342 200 511 322 44 31 101 68 128 81 26 13 47
27 47 30 0 3 -7 18 -15 34 -17 33 -31 36 -59 15 -31 -24 -43 -18 -62 30 -16
42 -16 55 -1 197 10 106 12 157 5 166 -8 8 -6 12 4 12 18 0 43 44 34 59 -9 14
17 14 30 1 17 -17 41 -1 74 48 55 83 76 195 45 239 -14 20 -13 24 14 55 21 25
27 38 20 50 -6 11 -4 18 5 21 9 4 14 18 14 36 -1 16 9 46 21 66 23 39 21 55
-7 55 -15 1 -15 2 2 15 15 11 43 69 46 91 0 1 -12 5 -26 8 -22 6 -25 10 -19
38 5 20 3 33 -6 38 -10 7 -9 14 5 34 9 14 12 26 7 26 -5 0 -7 10 -4 21 6 21 5
21 -21 4 -25 -17 -26 -16 -26 1 0 10 10 29 23 42 l22 25 -22 -5 c-40 -10 -81
60 -51 90 16 16 -17 52 -49 52 -15 0 -22 4 -18 11 4 6 -1 16 -11 24 -16 11
-16 15 -5 29 12 14 11 20 -9 41 l-24 25 -23 -22 c-20 -19 -23 -20 -23 -4 0 35
-54 116 -76 116 -9 0 -11 -6 -7 -17 6 -17 5 -17 -14 0 -11 10 -26 38 -33 62
-7 25 -16 42 -21 39 -5 -3 -12 1 -15 10 -7 18 -34 10 -34 -11 0 -23 -44 -12
-48 12 -7 51 -13 65 -27 65 -8 0 -15 -4 -15 -10z m65 -361 c5 -6 3 -9 -5 -9
-27 0 -60 12 -60 21 0 11 50 1 65 -12z m-230 -290 c4 -11 18 -24 31 -29 19 -7
24 -17 24 -43 0 -29 -3 -33 -26 -32 -45 2 -76 62 -58 109 8 22 21 20 29 -5z
m232 -5 c-3 -3 -12 -4 -19 -1 -8 3 -5 6 6 6 11 1 17 -2 13 -5z m97 -49 c-4 -8
1 -17 10 -21 29 -11 66 -114 64 -181 l0 -42 -29 14 c-31 16 -46 35 -29 35 8 0
9 15 4 48 -8 56 -21 83 -37 80 -7 -1 -27 2 -45 6 -28 7 -32 11 -26 29 11 36
25 47 60 47 25 0 32 -4 28 -15z m-406 -96 c10 -14 10 -20 -3 -33 -17 -17 -75
-22 -75 -7 0 9 61 65 64 59 1 -2 7 -10 14 -19z m222 1 c0 -5 -2 -10 -4 -10 -3
0 -8 5 -11 10 -3 6 -1 10 4 10 6 0 11 -4 11 -10z m-197 -95 c11 -7 35 -16 56
-20 21 -3 42 -15 49 -26 20 -31 4 -41 -28 -18 -28 21 -80 23 -121 5 -13 -5
-18 0 -23 24 -3 18 -3 36 0 41 8 13 46 10 67 -6z m369 -78 c34 -18 37 -24 34
-56 -4 -51 -16 -72 -35 -67 -9 3 -31 7 -49 8 -29 2 -81 38 -55 38 6 0 13 7 16
14 4 10 1 13 -8 10 -9 -4 -12 0 -8 14 2 11 0 23 -6 26 -6 4 -11 14 -11 22 0
21 77 16 122 -9z m-727 -139 c-14 -16 -25 -34 -25 -39 0 -5 -4 -9 -8 -9 -9 0
-7 64 2 79 3 5 17 6 31 4 l25 -5 -25 -30z m973 -25 c5 -17 -45 -40 -59 -26 -5
5 -7 17 -3 27 8 20 55 19 62 -1z m-628 -35 c0 -12 -14 -10 -35 5 -10 8 -15 19
-11 25 7 12 46 -14 46 -30z m630 -14 c0 -8 -4 -12 -10 -9 -5 3 -10 10 -10 16
0 5 5 9 10 9 6 0 10 -7 10 -16z m-860 -24 c0 -5 -2 -10 -4 -10 -3 0 -8 5 -11
10 -3 6 -1 10 4 10 6 0 11 -4 11 -10z m430 6 c0 -2 3 -11 6 -19 3 -10 -2 -14
-18 -13 -30 1 -38 36 -9 36 12 0 21 -2 21 -4z m440 -81 c0 -26 -18 -35 -24
-12 -3 6 -7 32 -10 57 l-7 45 21 -33 c11 -18 20 -44 20 -57z m-604 41 c17 -13
18 -15 2 -21 -9 -4 -21 -4 -26 -1 -6 3 -15 -1 -22 -9 -16 -19 -60 -20 -60 -1
0 18 39 45 66 45 11 1 29 -5 40 -13z m534 -23 c0 -20 -3 -33 -7 -30 -3 4 -12
2 -20 -5 -7 -6 -17 -8 -20 -4 -4 4 -1 11 7 16 8 5 16 15 16 22 1 7 2 19 3 26
3 29 21 8 21 -25z m-12 -85 c-6 -18 -28 -21 -28 -4 0 9 7 16 16 16 9 0 14 -5
12 -12z m-608 -135 c0 -25 -1 -25 -19 -9 -15 13 -20 14 -24 4 -2 -7 -8 -9 -13
-5 -11 11 15 27 33 20 7 -3 13 0 13 6 0 6 2 11 5 11 3 0 5 -12 5 -27z"/>
<path d="M13305 2440 c3 -5 8 -10 11 -10 2 0 4 5 4 10 0 6 -5 10 -11 10 -5 0
-7 -4 -4 -10z"/>
<path d="M7560 3471 c0 -22 29 -56 39 -46 3 4 -2 11 -12 16 -20 12 -23 35 -4
42 7 3 5 6 -5 6 -11 1 -18 -6 -18 -18z"/>
<path d="M8781 3474 c0 -11 3 -14 6 -6 3 7 2 16 -1 19 -3 4 -6 -2 -5 -13z"/>
<path d="M4301 3454 c0 -11 3 -14 6 -6 3 7 2 16 -1 19 -3 4 -6 -2 -5 -13z"/>
<path d="M8780 3434 c0 -8 5 -12 10 -9 6 4 8 11 5 16 -9 14 -15 11 -15 -7z"/>
<path d="M6195 3430 c3 -5 8 -10 11 -10 2 0 4 5 4 10 0 6 -5 10 -11 10 -5 0
-7 -4 -4 -10z"/>
<path d="M6745 3430 c3 -5 14 -10 23 -10 15 0 15 2 2 10 -20 13 -33 13 -25 0z"/>
<path d="M5858 3404 c-4 -3 0 -13 8 -21 19 -20 28 -12 11 11 -7 9 -16 14 -19
10z"/>
<path d="M6382 3381 c7 -11 16 -17 20 -15 5 3 2 12 -6 20 -21 20 -28 17 -14
-5z"/>
<path d="M4996 3364 c-9 -22 3 -32 14 -14 12 19 12 30 1 30 -5 0 -12 -7 -15
-16z"/>
<path d="M4655 3360 c3 -5 8 -10 11 -10 2 0 4 5 4 10 0 6 -5 10 -11 10 -5 0
-7 -4 -4 -10z"/>
<path d="M10453 3319 c-1 -18 2 -39 7 -48 7 -12 9 -3 10 32 0 52 -14 65 -17
16z"/>
<path d="M1460 3325 c7 -8 17 -15 22 -15 6 0 5 7 -2 15 -7 8 -17 15 -22 15 -6
0 -5 -7 2 -15z"/>
<path d="M4190 3332 c0 -5 7 -13 16 -16 10 -4 14 -1 12 6 -5 15 -28 23 -28 10z"/>
<path d="M4280 3330 c0 -5 7 -10 16 -10 8 0 12 5 9 10 -3 6 -10 10 -16 10 -5
0 -9 -4 -9 -10z"/>
<path d="M6416 3324 c-8 -22 -4 -25 11 -9 7 8 9 16 4 19 -5 3 -12 -1 -15 -10z"/>
<path d="M6550 3328 c0 -4 7 -8 15 -8 8 0 15 4 15 8 0 5 -7 9 -15 9 -8 0 -15
-4 -15 -9z"/>
<path d="M4680 3309 c0 -5 5 -7 10 -4 6 3 10 8 10 11 0 2 -4 4 -10 4 -5 0 -10
-5 -10 -11z"/>
<path d="M4183 3293 c9 -11 17 -26 17 -33 0 -7 3 -10 7 -6 9 9 11 46 2 46 -4
0 -16 3 -26 7 -17 6 -17 6 0 -14z"/>
<path d="M4280 3300 c0 -5 5 -10 11 -10 5 0 7 5 4 10 -3 6 -8 10 -11 10 -2 0
-4 -4 -4 -10z"/>
<path d="M5002 3290 c0 -14 2 -19 5 -12 2 6 2 18 0 25 -3 6 -5 1 -5 -13z"/>
<path d="M6536 3303 c-6 -6 32 -43 44 -43 5 0 10 7 13 14 4 10 1 13 -9 9 -7
-3 -14 -1 -14 5 0 12 -26 23 -34 15z"/>
<path d="M15012 3280 c0 -19 2 -27 5 -17 2 9 2 25 0 35 -3 9 -5 1 -5 -18z"/>
<path d="M7130 3270 c11 -11 25 -20 31 -20 7 0 0 9 -14 20 -14 11 -28 20 -31
20 -3 0 3 -9 14 -20z"/>
<path d="M1786 3262 c-7 -8 -26 -15 -42 -16 -106 -8 -289 -133 -330 -226 -26
-57 -34 -82 -34 -103 0 -13 -5 -28 -12 -35 -23 -23 -36 -123 -22 -172 15 -58
61 -155 79 -170 8 -7 15 -25 15 -41 0 -15 4 -30 9 -34 6 -3 7 -28 4 -55 -7
-58 10 -90 60 -120 23 -14 38 -35 55 -78 12 -32 38 -78 58 -100 33 -40 62
-107 50 -119 -3 -3 -21 2 -40 11 -34 16 -82 23 -59 8 18 -11 34 -60 23 -67 -6
-4 -10 3 -10 14 0 25 -14 34 -40 26 -18 -6 -19 -8 -5 -28 11 -16 13 -37 9 -87
-5 -53 -3 -68 10 -79 20 -17 21 -35 1 -27 -18 7 -18 7 1 -39 8 -21 13 -44 10
-52 -3 -8 -2 -12 3 -8 5 3 30 48 55 99 55 115 68 127 61 54 -5 -42 -2 -59 13
-84 32 -50 99 -98 224 -160 104 -53 122 -59 167 -56 55 4 64 13 29 29 -21 9
-17 12 37 27 124 34 358 138 500 223 43 26 50 34 48 58 -4 46 -14 48 -112 24
-73 -18 -96 -20 -116 -11 -14 6 -31 9 -40 6 -9 -4 -32 13 -63 45 -45 47 -49
55 -60 128 -7 43 -12 134 -12 203 l0 126 33 12 c66 24 100 125 61 181 -25 35
-23 91 6 129 15 21 24 46 24 70 0 41 -26 141 -48 187 -8 17 -29 61 -47 98 -23
49 -41 73 -63 84 -17 8 -42 26 -56 39 -42 39 -136 83 -192 90 -101 12 -228 10
-242 -4z m153 -146 c9 -11 9 -15 -1 -19 -7 -3 8 -6 35 -6 26 -1 47 -5 47 -11
0 -5 -4 -10 -9 -10 -23 0 -30 -72 -9 -97 13 -16 1 -33 -23 -33 -10 0 -19 -5
-19 -10 0 -6 -13 -4 -30 5 -16 8 -38 15 -49 15 -26 0 -112 81 -93 88 10 3 10
8 -3 22 -14 16 -14 18 -1 23 10 4 13 13 9 23 -6 17 -7 17 82 2 12 -2 19 2 18
10 -4 17 32 15 46 -2z m-231 -89 c13 -15 3 -33 -18 -32 -16 0 -21 12 -13 33 6
16 18 15 31 -1z m186 -346 c7 -10 -18 -34 -27 -25 -7 8 3 34 13 34 5 0 11 -4
14 -9z m206 -61 c0 -5 -5 -10 -11 -10 -5 0 -7 5 -4 10 3 6 8 10 11 10 2 0 4
-4 4 -10z m-395 -50 c3 -5 -1 -10 -10 -10 -9 0 -13 5 -10 10 3 6 8 10 10 10 2
0 7 -4 10 -10z m489 -25 c13 -34 -24 -66 -50 -44 -19 16 -17 36 4 48 24 15 39
13 46 -4z m-294 -97 c0 -5 -6 -8 -14 -5 -8 3 -31 9 -52 13 l-37 7 26 14 c15 7
27 19 27 26 1 14 50 -40 50 -55z m267 10 c-3 -8 -6 -5 -6 6 -1 11 2 17 5 13 3
-3 4 -12 1 -19z m-224 -36 c16 -17 15 -18 -19 -14 -24 3 -41 -1 -54 -13 -19
-17 -21 -16 -24 18 -1 6 15 15 34 18 19 4 38 7 41 8 3 0 13 -7 22 -17z m-13
-227 c-7 -8 -16 -15 -21 -15 -5 0 -9 7 -9 15 0 9 9 15 21 15 18 0 19 -2 9 -15z"/>
<path d="M4287 3273 c-4 -3 -7 -11 -7 -17 0 -6 5 -5 12 2 6 6 9 14 7 17 -3 3
-9 2 -12 -2z"/>
<path d="M6380 3255 c-7 -8 -9 -15 -6 -15 4 0 14 7 22 15 9 8 11 15 6 15 -5 0
-15 -7 -22 -15z"/>
<path d="M4990 3229 c0 -12 5 -19 12 -17 18 6 20 25 3 31 -10 5 -15 0 -15 -14z"/>
<path d="M5765 3240 c3 -5 8 -10 11 -10 2 0 4 5 4 10 0 6 -5 10 -11 10 -5 0
-7 -4 -4 -10z"/>
<path d="M6605 3240 c3 -5 8 -10 11 -10 2 0 4 5 4 10 0 6 -5 10 -11 10 -5 0
-7 -4 -4 -10z"/>
<path d="M8788 3210 c-3 -16 -1 -35 4 -42 4 -8 8 4 8 30 0 49 -6 55 -12 12z"/>
<path d="M4211 3204 c0 -11 3 -14 6 -6 3 7 2 16 -1 19 -3 4 -6 -2 -5 -13z"/>
<path d="M12010 3200 c0 -5 5 -10 11 -10 5 0 7 5 4 10 -3 6 -8 10 -11 10 -2 0
-4 -4 -4 -10z"/>
<path d="M4992 3165 c0 -16 2 -22 5 -12 2 9 2 23 0 30 -3 6 -5 -1 -5 -18z"/>
<path d="M5012 3165 c0 -16 2 -22 5 -12 2 9 2 23 0 30 -3 6 -5 -1 -5 -18z"/>
<path d="M6757 3179 c7 -7 15 -10 18 -7 3 3 -2 9 -12 12 -14 6 -15 5 -6 -5z"/>
<path d="M12006 3162 c-3 -6 -1 -14 5 -17 15 -10 25 3 12 16 -7 7 -13 7 -17 1z"/>
<path d="M5851 3143 c7 -12 15 -20 18 -17 3 2 -3 12 -13 22 -17 16 -18 16 -5
-5z"/>
<path d="M6370 3142 c0 -12 19 -26 26 -19 2 2 -2 10 -11 17 -9 8 -15 8 -15 2z"/>
<path d="M4986 3114 c-9 -24 -7 -28 9 -14 17 14 20 30 6 30 -5 0 -12 -7 -15
-16z"/>
<path d="M10476 3063 c3 -27 10 -52 16 -58 8 -7 9 -2 4 15 -3 14 -6 40 -6 58
0 17 -4 32 -10 32 -6 0 -7 -19 -4 -47z"/>
<path d="M4178 3093 c6 -2 12 -9 12 -15 0 -6 -6 -8 -14 -5 -11 5 -12 0 -3 -24
15 -40 22 -36 24 11 2 32 -2 40 -15 39 -10 0 -12 -3 -4 -6z"/>
<path d="M6415 3080 c-3 -5 -1 -10 4 -10 6 0 11 5 11 10 0 6 -2 10 -4 10 -3 0
-8 -4 -11 -10z"/>
<path d="M6540 3080 c0 -5 6 -10 14 -10 8 0 18 5 21 10 3 6 -3 10 -14 10 -12
0 -21 -4 -21 -10z"/>
<path d="M7645 3067 c-15 -20 -17 -21 -26 -4 -13 23 -26 22 -34 -4 -5 -14 -12
-18 -23 -14 -42 18 -51 17 -46 -2 4 -15 0 -19 -23 -18 -20 0 -31 -7 -38 -22
-5 -13 -26 -29 -46 -37 -30 -12 -36 -19 -32 -36 4 -14 1 -20 -12 -20 -12 0
-15 -5 -10 -19 3 -11 -1 -37 -10 -58 -27 -62 -22 -169 9 -231 29 -56 33 -78
11 -48 -12 16 -17 17 -30 6 -20 -16 -19 -56 2 -131 14 -51 22 -64 48 -76 21
-10 23 -13 7 -9 -15 3 -22 0 -19 -7 2 -7 15 -13 29 -15 31 -4 35 -23 44 -212
5 -108 4 -128 -10 -139 -9 -7 -16 -28 -16 -47 0 -51 47 -98 125 -124 35 -12
65 -26 67 -31 5 -14 53 -14 123 1 63 13 170 69 218 114 24 22 27 29 16 42 -7
8 -20 14 -29 11 -9 -2 -16 2 -17 12 -1 9 -5 52 -11 96 l-9 80 -2 -62 c-1 -60
-28 -144 -50 -157 -6 -4 -11 -12 -11 -17 0 -6 5 -7 12 -3 6 4 8 3 5 -3 -10
-16 -66 -33 -72 -23 -7 11 12 23 25 15 6 -3 10 -2 10 3 0 18 -29 21 -63 7 -32
-13 -47 -12 -47 6 0 7 26 41 62 79 12 13 13 20 5 23 -7 2 3 16 22 33 19 15 49
52 68 81 33 53 43 77 21 55 -7 -7 -21 -12 -31 -12 -10 0 -21 -9 -24 -20 -3
-11 -9 -20 -13 -20 -4 0 -10 -9 -13 -19 -7 -29 -66 -39 -84 -15 -12 17 -11 21
7 36 22 18 19 38 -6 38 -26 0 -13 15 31 36 46 21 79 16 69 -11 -4 -8 -1 -15 5
-15 12 0 15 23 4 34 -5 4 -8 11 -8 14 -1 4 -4 16 -8 28 -8 22 -79 60 -95 51
-14 -9 -53 23 -45 36 4 7 8 17 8 22 1 14 97 7 107 -8 4 -6 8 -7 8 -2 0 23 -20
38 -55 41 -21 2 -40 5 -42 8 -10 10 -19 126 -11 141 11 18 40 20 37 3 -1 -7 1
-21 4 -30 4 -10 9 -25 12 -33 5 -15 66 -47 74 -39 4 4 9 32 10 67 1 9 8 17 17
17 10 0 14 -6 11 -14 -4 -10 0 -12 14 -9 43 12 32 26 -36 48 -19 6 -19 7 -2
17 18 10 33 8 71 -7 16 -7 17 -6 7 13 -6 11 -20 24 -32 27 -13 4 -17 11 -11
18 16 22 13 67 -5 67 -21 0 -14 7 12 12 11 1 23 7 27 12 3 5 11 -9 17 -31 6
-22 18 -46 26 -53 9 -8 15 -30 15 -57 0 -37 3 -43 13 -34 8 6 16 9 18 7 2 -3
15 4 29 14 19 15 21 20 8 20 -9 0 -18 -6 -21 -12 -2 -7 -7 -10 -11 -7 -3 3 1
31 9 62 28 107 35 228 15 235 -6 2 -8 7 -5 12 3 4 -2 21 -10 36 -8 16 -15 35
-15 42 0 6 -9 12 -20 12 -11 0 -20 5 -20 12 0 16 -61 68 -79 68 -24 0 -101 43
-101 57 0 18 -17 17 -24 -2 -6 -18 -33 -20 -38 -3 -7 21 -46 19 -63 -5z m199
-306 c21 -5 44 -15 50 -22 8 -9 7 -10 -7 -6 -11 4 -25 -1 -38 -14 -13 -13 -28
-19 -42 -15 -12 3 -26 -2 -34 -12 -8 -9 -11 -11 -7 -3 8 16 -12 31 -43 31 -26
0 -35 12 -27 34 7 18 83 22 148 7z m-20 -150 l29 -19 -57 -7 c-31 -4 -64 -14
-72 -22 -12 -13 -14 -12 -14 6 0 26 37 61 64 61 12 0 34 -9 50 -19z m-31 -368
c-7 -2 -21 -2 -30 0 -10 3 -4 5 12 5 17 0 24 -2 18 -5z m-48 -53 c-3 -5 -13
-10 -21 -10 -8 0 -14 5 -14 10 0 6 9 10 21 10 11 0 17 -4 14 -10z"/>
<path d="M6530 3052 c0 -4 10 -16 21 -26 15 -13 24 -15 32 -7 8 8 6 11 -6 11
-9 0 -17 4 -17 9 0 5 -7 11 -15 15 -8 3 -15 2 -15 -2z"/>
<path d="M4330 3030 c0 -5 5 -10 10 -10 6 0 10 5 10 10 0 6 -4 10 -10 10 -5 0
-10 -4 -10 -10z"/>
<path d="M4995 3030 c3 -5 8 -10 11 -10 2 0 4 5 4 10 0 6 -5 10 -11 10 -5 0
-7 -4 -4 -10z"/>
<path d="M7135 3020 c10 -11 23 -20 28 -20 6 0 0 9 -13 20 -13 11 -25 20 -28
20 -3 0 3 -9 13 -20z"/>
<path d="M3231 3014 c0 -11 3 -14 6 -6 3 7 2 16 -1 19 -3 4 -6 -2 -5 -13z"/>
<path d="M5741 3020 c-1 -21 16 -46 26 -37 4 5 3 11 -3 15 -6 4 -14 14 -17 22
-5 13 -5 13 -6 0z"/>
<path d="M6375 3009 c-11 -16 -1 -19 13 -3 7 8 8 14 3 14 -5 0 -13 -5 -16 -11z"/>
<path d="M4725 2976 c-24 -17 -17 -60 24 -154 39 -88 40 -119 5 -132 -14 -6
-36 -10 -49 -10 -18 0 -23 -4 -18 -16 5 -13 7 -13 15 -2 7 10 11 9 22 -5 14
-18 15 -18 26 2 6 12 15 21 21 21 6 0 7 -4 4 -10 -3 -5 -1 -10 4 -10 15 0 12
-110 -3 -110 -6 0 2 -12 17 -25 28 -25 67 -34 67 -15 0 6 -4 10 -8 10 -10 0
-7 152 3 198 5 26 4 30 -12 26 -14 -4 -21 4 -31 33 -8 21 -14 47 -15 58 -1 11
-5 25 -9 31 -5 7 -10 28 -12 48 -4 31 -22 76 -29 76 -2 0 -11 -6 -22 -14z"/>
<path d="M4980 2975 c0 -8 7 -15 16 -15 14 0 14 3 4 15 -7 8 -14 15 -16 15 -2
0 -4 -7 -4 -15z"/>
<path d="M6196 2927 c3 -10 9 -15 12 -12 3 3 0 11 -7 18 -10 9 -11 8 -5 -6z"/>
<path d="M4996 2913 c-4 -9 -3 -20 2 -25 6 -6 11 1 14 16 6 29 -6 35 -16 9z"/>
<path d="M10441 2871 c-19 -37 -20 -43 -6 -37 9 3 19 6 21 6 3 0 2 5 -1 10 -4
6 -1 17 5 25 7 8 10 20 8 27 -3 7 -15 -7 -27 -31z"/>
<path d="M4397 2893 c-2 -5 -4 -23 -5 -40 -2 -27 1 -33 18 -33 17 0 18 4 10
25 -5 14 -7 32 -4 40 6 15 -11 22 -19 8z"/>
<path d="M5846 2887 c3 -10 9 -15 12 -12 3 3 0 11 -7 18 -10 9 -11 8 -5 -6z"/>
<path d="M6360 2891 c0 -5 7 -12 16 -15 14 -5 15 -4 4 9 -14 17 -20 19 -20 6z"/>
<path d="M11025 2890 c-3 -5 -4 -24 -1 -42 3 -18 13 -118 21 -223 9 -104 22
-244 30 -310 7 -66 17 -156 20 -200 3 -44 8 -93 10 -110 2 -16 9 -70 15 -120
6 -49 19 -146 30 -215 10 -69 26 -183 35 -255 9 -71 18 -143 20 -160 36 -259
49 -340 60 -395 7 -36 19 -113 25 -173 6 -59 19 -133 28 -164 l17 -57 60 3
c33 2 78 4 100 6 l40 3 3 135 c2 130 2 136 -18 142 -12 4 -33 4 -47 0 -19 -4
-24 -11 -20 -25 3 -11 1 -20 -4 -20 -12 0 -41 59 -34 70 3 5 -6 31 -20 57 -14
26 -25 62 -25 80 0 17 -6 38 -14 45 -11 12 -13 34 -8 87 2 12 5 12 14 3 9 -9
9 -15 1 -23 -8 -8 -8 -18 -1 -35 27 -58 39 -2 13 59 -10 25 -20 35 -29 31 -13
-5 -13 -2 -3 19 6 14 16 23 22 21 9 -4 35 -80 69 -204 7 -25 16 -45 21 -45 5
0 20 -10 34 -22 50 -47 51 -43 51 221 0 222 -2 248 -20 287 -11 24 -19 60 -19
79 l1 35 7 -35 c4 -19 12 -44 18 -55 9 -15 12 63 12 330 1 252 -2 346 -10 338
-14 -14 -49 -5 -49 13 0 19 20 28 33 15 6 -6 15 -11 19 -11 4 0 8 187 8 415
l0 415 -254 0 c-156 0 -257 -4 -261 -10z m95 -235 c0 -8 -7 -15 -15 -15 -8 0
-15 7 -15 15 0 8 7 15 15 15 8 0 15 -7 15 -15z m124 -51 c5 -12 2 -15 -10 -10
-8 3 -22 6 -30 6 -8 0 -14 5 -14 10 0 17 47 11 54 -6z m262 -351 c-11 -11 -19
6 -11 24 8 17 8 17 12 0 3 -10 2 -21 -1 -24z m-22 -109 c9 -3 16 -11 16 -18 0
-15 -38 -38 -50 -31 -18 11 -10 27 10 22 11 -3 20 -1 20 4 0 5 -4 9 -10 9 -5
0 -10 5 -10 10 0 12 3 12 24 4z m35 -626 c-9 -16 -14 -19 -17 -9 -2 7 2 17 9
22 20 13 21 11 8 -13z m-279 2 c0 -5 -7 -10 -15 -10 -8 0 -15 5 -15 10 0 6 7
10 15 10 8 0 15 -4 15 -10z m190 -120 c0 -5 -5 -10 -11 -10 -5 0 -7 5 -4 10 3
6 8 10 11 10 2 0 4 -4 4 -10z m-65 -69 c-3 -12 -11 -21 -16 -21 -6 0 -8 3 -6
8 2 4 7 16 11 26 9 25 20 13 11 -13z m-18 -183 c-3 -7 -5 -2 -5 12 0 14 2 19
5 13 2 -7 2 -19 0 -25z m42 -1 c0 -21 -1 -21 -9 -2 -12 28 -12 37 0 30 6 -3
10 -16 9 -28z m-39 -427 c0 -5 -4 -10 -10 -10 -5 0 -10 5 -10 10 0 6 5 10 10
10 6 0 10 -4 10 -10z"/>
<path d="M10717 2884 c-4 -4 -7 -17 -7 -29 0 -12 -9 -34 -20 -48 -11 -14 -20
-30 -20 -36 0 -6 -7 -11 -15 -11 -8 0 -15 -8 -15 -19 0 -10 -7 -24 -15 -31
-18 -15 -20 1 -3 18 9 9 9 12 0 12 -7 0 -15 -7 -18 -15 -4 -8 -16 -15 -28 -15
-16 0 -25 -9 -34 -34 -7 -19 -26 -49 -41 -65 -35 -37 -21 -42 15 -6 29 29 34
31 34 9 0 -8 -4 -12 -10 -9 -5 3 -10 -1 -10 -9 0 -8 -8 -19 -17 -25 -14 -7
-15 -13 -6 -21 8 -9 16 -7 32 9 23 23 36 28 25 9 -9 -15 -6 -90 4 -100 5 -5 7
5 4 22 -2 16 -2 40 2 54 5 22 45 56 70 60 22 3 37 18 50 49 8 18 15 25 15 16
1 -9 -10 -33 -24 -53 -28 -42 -35 -77 -11 -57 8 7 18 26 21 42 4 16 10 29 14
29 4 0 13 17 19 39 14 46 15 54 3 47 -16 -11 -21 38 -5 55 9 10 14 28 12 41
l-5 23 -11 -25 c-9 -21 -11 -22 -11 -6 -1 11 5 27 13 35 13 16 7 59 -7 45z
m-86 -257 c-13 -12 -20 -15 -16 -7 14 26 28 41 33 35 3 -3 -5 -16 -17 -28z"/>
<path d="M3870 2535 c0 -342 0 -345 20 -345 32 0 75 -26 107 -64 l28 -34 2 56
c2 31 7 118 13 192 5 74 12 173 15 219 3 45 10 126 15 180 15 157 26 141 -95
141 l-104 0 -1 -345z m60 135 c0 -5 -2 -10 -4 -10 -3 0 -8 5 -11 10 -3 6 -1
10 4 10 6 0 11 -4 11 -10z m60 -216 c6 -14 6 -32 2 -40 -7 -13 -10 -13 -21 0
-11 13 -11 19 -1 31 11 13 10 14 -4 9 -16 -6 -22 6 -9 19 12 13 24 7 33 -19z
m20 -219 c0 -28 -15 -34 -24 -9 -3 8 -12 12 -18 9 -7 -4 -4 1 6 9 27 22 36 20
36 -9z"/>
<path d="M4976 2871 c-4 -7 -5 -15 -2 -18 9 -9 19 4 14 18 -4 11 -6 11 -12 0z"/>
<path d="M4160 2860 c0 -5 5 -10 10 -10 6 0 10 5 10 10 0 6 -4 10 -10 10 -5 0
-10 -4 -10 -10z"/>
<path d="M6550 2833 c1 -13 30 -48 30 -36 0 7 -5 15 -10 18 -6 4 -8 11 -5 16
4 5 1 9 -4 9 -6 0 -11 -3 -11 -7z"/>
<path d="M4160 2818 c0 -8 7 -21 15 -28 19 -16 19 -1 0 24 -12 16 -15 17 -15
4z"/>
<path d="M10501 2808 c0 -13 4 -32 9 -43 7 -15 9 -10 9 23 1 23 -3 42 -9 42
-5 0 -10 -10 -9 -22z"/>
<path d="M4387 2803 c-7 -12 14 -140 32 -185 5 -14 14 -29 20 -32 11 -7 85
-104 114 -148 25 -39 131 -104 207 -128 39 -12 89 -38 125 -65 33 -25 63 -45
66 -45 4 0 2 -13 -4 -30 -9 -23 -8 -33 1 -42 17 -17 34 8 27 40 -3 12 -2 22 2
22 11 0 91 -51 248 -157 123 -84 197 -123 552 -294 44 -21 91 -39 102 -39 23
0 153 -49 266 -100 39 -18 94 -41 123 -52 28 -11 52 -24 52 -29 0 -5 14 -25
32 -44 27 -31 37 -35 79 -35 43 0 51 4 75 36 33 42 33 80 4 236 -24 124 -58
199 -104 227 -46 29 -52 26 -23 -9 37 -44 63 -123 76 -229 12 -97 9 -126 -13
-134 -15 -6 -106 34 -151 67 -16 12 -61 36 -98 54 -38 18 -87 50 -110 71 -32
30 -52 40 -87 43 -25 3 -61 11 -80 18 -19 7 -47 17 -61 22 -15 5 -35 17 -45
27 -19 17 -75 37 -169 61 -61 15 -132 47 -137 62 -2 6 -18 12 -36 13 -38 3
-82 30 -82 50 0 8 -9 15 -20 15 -11 0 -20 5 -20 10 0 6 -6 10 -13 10 -7 0 -18
5 -25 12 -6 6 -20 13 -29 14 -24 4 -63 26 -63 36 0 4 -11 8 -25 8 -14 0 -28 7
-31 15 -4 8 -16 15 -29 15 -12 0 -28 7 -35 15 -7 8 -16 15 -21 15 -13 0 -103
43 -110 52 -7 11 -96 37 -150 43 -54 7 -173 61 -164 75 3 5 0 7 -8 5 -36 -14
-217 233 -217 296 0 15 -5 29 -10 31 -6 2 -14 23 -18 48 -4 25 -11 40 -15 33z"/>
<path d="M6530 2799 c0 -25 28 -45 42 -31 9 9 9 12 -1 12 -8 0 -20 8 -27 18
-12 15 -13 15 -14 1z"/>
<path d="M10420 2800 c0 -5 5 -10 11 -10 5 0 7 5 4 10 -3 6 -8 10 -11 10 -2 0
-4 -4 -4 -10z"/>
<path d="M4320 2769 c0 -5 5 -7 10 -4 6 3 10 8 10 11 0 2 -4 4 -10 4 -5 0 -10
-5 -10 -11z"/>
<path d="M10730 2760 c0 -5 5 -10 10 -10 6 0 10 5 10 10 0 6 -4 10 -10 10 -5
0 -10 -4 -10 -10z"/>
<path d="M5740 2750 c0 -5 5 -10 11 -10 5 0 7 5 4 10 -3 6 -8 10 -11 10 -2 0
-4 -4 -4 -10z"/>
<path d="M10468 2733 c7 -3 16 -2 19 1 4 3 -2 6 -13 5 -11 0 -14 -3 -6 -6z"/>
<path d="M4520 2723 c0 -4 9 -19 19 -32 l19 -24 11 21 c9 18 9 21 -2 16 -8 -3
-22 2 -31 11 -9 9 -16 13 -16 8z"/>
<path d="M4986 2682 c-4 -24 -5 -46 -2 -49 12 -12 17 6 14 48 l-3 44 -9 -43z"/>
<path d="M5820 2650 c0 -5 5 -10 11 -10 5 0 7 5 4 10 -3 6 -8 10 -11 10 -2 0
-4 -4 -4 -10z"/>
<path d="M4153 2615 c7 -13 14 -20 15 -14 5 14 -6 39 -17 39 -5 0 -4 -11 2
-25z"/>
<path d="M4526 2615 c4 -8 13 -15 21 -15 13 0 13 3 3 15 -7 8 -16 15 -21 15
-5 0 -6 -7 -3 -15z"/>
<path d="M4960 2609 c0 -5 5 -7 10 -4 6 3 10 8 10 11 0 2 -4 4 -10 4 -5 0 -10
-5 -10 -11z"/>
<path d="M4145 2583 c8 -18 18 -33 20 -33 10 0 4 16 -16 40 l-20 25 16 -32z"/>
<path d="M10317 2567 c-27 -31 -35 -57 -18 -57 5 0 11 4 13 8 2 5 21 16 43 25
22 9 32 16 22 16 -10 1 -21 10 -25 21 -7 18 -9 17 -35 -13z"/>
<path d="M6530 2580 c0 -5 7 -7 15 -4 8 4 15 8 15 10 0 2 -7 4 -15 4 -8 0 -15
-4 -15 -10z"/>
<path d="M10633 2579 c-11 -11 -6 -56 8 -65 5 -3 9 13 9 35 0 45 -1 46 -17 30z"/>
<path d="M4245 2560 c3 -5 8 -10 11 -10 2 0 4 5 4 10 0 6 -5 10 -11 10 -5 0
-7 -4 -4 -10z"/>
<path d="M6560 2547 c0 -20 -16 -23 -23 -4 -4 7 -6 8 -6 1 -1 -6 5 -17 13 -23
11 -10 16 -8 21 9 4 12 4 24 1 27 -3 4 -6 -1 -6 -10z"/>
<path d="M3282 2530 c0 -14 2 -19 5 -12 2 6 2 18 0 25 -3 6 -5 1 -5 -13z"/>
<path d="M4570 2541 c0 -5 5 -13 10 -16 6 -3 10 -2 10 4 0 5 -4 13 -10 16 -5
3 -10 2 -10 -4z"/>
<path d="M8027 2533 c-4 -3 -7 -29 -7 -57 0 -62 17 -51 26 17 6 43 -1 59 -19
40z"/>
<path d="M9016 2523 c-6 -14 -5 -15 5 -6 7 7 10 15 7 18 -3 3 -9 -2 -12 -12z"/>
<path d="M4970 2511 c0 -6 5 -13 10 -16 6 -3 10 1 10 9 0 9 -4 16 -10 16 -5 0
-10 -4 -10 -9z"/>
<path d="M10315 2509 c-4 -6 -13 -8 -20 -5 -15 5 -52 -31 -42 -41 7 -6 -70
-63 -86 -63 -7 0 -61 -33 -162 -99 -37 -25 -61 -37 -125 -64 -14 -6 -34 -19
-45 -28 -24 -19 -65 -31 -65 -18 0 17 -25 9 -52 -16 -15 -14 -30 -25 -34 -25
-4 0 -25 -15 -48 -33 -45 -37 -120 -82 -180 -109 -21 -10 -60 -34 -87 -54 -42
-31 -49 -33 -49 -17 0 17 -8 19 -97 16 -54 -2 -109 -6 -123 -10 -14 -3 -40 -6
-58 -8 -18 -1 -38 -7 -44 -13 -7 -7 -24 -12 -40 -12 -15 0 -36 -10 -48 -22
-11 -12 -20 -16 -20 -9 0 6 12 24 26 38 l26 26 -29 -7 c-37 -9 -80 -56 -92
-103 -5 -21 -12 -110 -16 -198 -6 -154 -6 -161 15 -182 14 -16 32 -23 56 -23
38 0 103 23 119 43 6 7 57 36 115 64 58 29 143 73 190 98 47 26 112 55 145 66
33 12 67 26 75 33 8 7 56 37 105 67 50 30 97 59 106 64 9 6 31 18 49 28 29 17
166 110 267 182 23 17 44 35 47 42 3 7 -42 -23 -99 -65 -129 -96 -167 -119
-159 -97 3 8 10 15 15 15 10 0 61 46 60 54 -3 20 2 27 28 41 17 8 36 13 43 12
7 -2 10 -2 6 0 -11 7 3 33 17 33 7 0 15 -5 17 -12 2 -6 10 -8 17 -4 7 5 10 14
7 22 -3 8 -1 14 4 14 6 0 10 7 10 16 0 11 6 15 20 11 13 -3 20 0 20 9 0 8 7
14 14 14 16 0 141 120 148 142 4 10 12 10 41 1 46 -14 55 -4 53 57 -2 38 -5
46 -23 48 -12 2 -24 10 -27 18 -9 24 11 62 36 67 22 4 22 4 1 6 -12 0 -25 -4
-28 -10z m-1415 -1059 c0 -5 -10 -10 -22 -9 -22 0 -22 1 -3 9 11 5 21 9 23 9
1 1 2 -3 2 -9z"/>
<path d="M8785 2500 c3 -5 11 -10 16 -10 6 0 7 5 4 10 -3 6 -11 10 -16 10 -6
0 -7 -4 -4 -10z"/>
<path d="M4786 2491 c15 -14 54 -23 54 -13 0 11 -24 22 -48 22 -10 0 -12 -3
-6 -9z"/>
<path d="M540 2468 c0 -10 -3 -18 -8 -18 -14 0 -29 -67 -20 -91 12 -32 -6 -47
-31 -25 -11 10 -18 23 -15 30 3 7 -7 23 -22 36 -18 17 -28 21 -31 13 -7 -19
-72 -16 -79 2 -5 12 -15 14 -40 9 -27 -5 -34 -3 -34 9 0 9 -9 19 -20 22 -24 8
-90 -30 -90 -51 0 -8 -4 -14 -10 -14 -18 0 -90 -72 -115 -114 -22 -38 -24 -52
-24 -173 0 -73 4 -135 9 -138 4 -3 6 14 4 37 l-3 43 11 -43 c9 -35 15 -43 29
-39 14 4 22 -4 31 -29 14 -38 27 -44 35 -14 6 23 14 25 32 8 10 -11 14 -10 21
2 30 53 112 160 119 155 5 -2 -7 -34 -26 -70 -36 -68 -37 -100 -1 -69 14 14
23 16 36 8 13 -9 20 -7 30 5 9 12 12 13 10 2 -5 -28 28 -22 38 6 10 24 10 22
6 -19 -7 -70 11 -60 42 23 15 39 33 81 41 92 14 20 15 20 15 -19 0 -22 -4 -44
-9 -50 -5 -5 -12 -34 -15 -64 l-6 -55 52 -34 c29 -18 101 -68 160 -110 103
-73 107 -78 119 -126 18 -77 35 -112 63 -131 15 -9 29 -15 31 -12 3 3 -4 25
-14 49 -31 70 -64 246 -56 304 13 112 56 198 117 235 l29 18 -26 6 c-95 24
-313 237 -331 323 -7 36 -54 96 -54 71z m-300 -102 c0 -22 -26 -66 -38 -66
-33 -1 -84 -62 -124 -147 -30 -66 -42 -83 -51 -74 -9 9 -9 14 1 19 6 5 19 31
27 59 17 56 64 121 108 148 15 9 35 27 43 41 14 20 34 33 34 20z m50 -97 c-7
-11 -14 -18 -17 -15 -3 3 0 12 7 21 18 21 23 19 10 -6z m197 -171 c-3 -8 -6
-5 -6 6 -1 11 2 17 5 13 3 -3 4 -12 1 -19z"/>
<path d="M7977 2473 c-4 -3 0 -17 8 -30 14 -21 14 -24 -5 -35 -29 -18 -25 -30
6 -16 22 10 25 17 20 42 -7 34 -19 50 -29 39z"/>
<path d="M6737 2459 c7 -7 15 -10 18 -7 3 3 -2 9 -12 12 -14 6 -15 5 -6 -5z"/>
<path d="M10204 2449 c-19 -21 -19 -21 9 -8 15 7 27 16 27 21 0 14 -16 9 -36
-13z"/>
<path d="M6180 2440 c0 -5 5 -10 11 -10 5 0 7 5 4 10 -3 6 -8 10 -11 10 -2 0
-4 -4 -4 -10z"/>
<path d="M5000 2410 c0 -5 6 -10 14 -10 20 0 45 -32 29 -37 -15 -5 -17 -33 -3
-33 6 0 10 5 10 10 0 6 5 10 10 10 6 0 10 -7 10 -15 0 -8 7 -15 15 -15 24 0
17 17 -24 60 -38 39 -61 50 -61 30z"/>
<path d="M4120 2406 c0 -2 7 -9 15 -16 9 -7 15 -8 15 -2 0 5 -7 12 -15 16 -8
3 -15 4 -15 2z"/>
<path d="M5810 2401 c0 -5 7 -15 17 -22 15 -13 15 -12 4 9 -12 23 -21 28 -21
13z"/>
<path d="M9020 2390 c0 -5 5 -10 11 -10 5 0 7 5 4 10 -3 6 -8 10 -11 10 -2 0
-4 -4 -4 -10z"/>
<path d="M4110 2383 c0 -22 23 -63 37 -63 7 0 13 11 13 25 0 14 -4 25 -10 25
-5 0 -7 -7 -4 -15 10 -25 -5 -17 -20 13 -8 15 -15 22 -16 15z"/>
<path d="M10545 2370 c-3 -5 -4 -14 -1 -19 4 -5 0 -12 -6 -15 -10 -5 -10 -7 0
-12 6 -3 12 -14 12 -24 0 -10 4 -21 9 -24 14 -9 19 -129 7 -149 -8 -13 -8 -20
3 -26 9 -6 10 -10 2 -12 -8 -3 -6 -17 7 -44 20 -42 38 -170 22 -160 -5 3 -12
0 -16 -6 -3 -6 0 -15 7 -20 10 -6 11 -9 2 -9 -7 0 -13 -7 -13 -15 0 -8 5 -15
10 -15 6 0 10 -7 10 -15 0 -8 4 -15 9 -15 5 0 12 -21 15 -47 4 -27 9 -60 12
-75 4 -22 2 -27 -9 -22 -10 3 -16 -4 -20 -23 -3 -15 -2 -30 2 -33 4 -3 11 -13
14 -24 5 -14 11 -16 20 -8 10 9 13 3 11 -30 -1 -27 1 -36 7 -27 6 10 9 3 9
-23 0 -20 -4 -39 -10 -43 -5 -3 -7 -12 -3 -20 3 -9 -1 -15 -11 -15 -19 0 -21
-11 -4 -28 9 -9 9 -12 0 -12 -16 0 -15 -12 2 -35 12 -16 16 -17 30 -6 9 8 16
9 16 3 0 -6 -5 -12 -10 -14 -7 -2 -5 -17 5 -42 12 -29 13 -41 5 -46 -8 -5 -6
-9 5 -14 14 -5 15 -9 5 -21 -7 -8 -9 -24 -5 -37 7 -22 6 -22 -7 -4 -10 12 -20
16 -28 11 -10 -6 -9 -11 5 -22 17 -12 17 -13 2 -13 -25 0 -21 -10 23 -59 22
-24 40 -46 41 -50 0 -3 2 -18 4 -33 2 -16 -1 -28 -6 -28 -10 0 -12 -31 -3 -55
5 -13 9 -14 15 -3 6 8 7 1 3 -18 -4 -19 -1 -34 5 -38 6 -4 11 -13 11 -19 0 -7
-4 -6 -10 3 -5 8 -12 12 -15 8 -10 -10 5 -49 16 -43 5 4 10 0 10 -7 1 -7 3
-24 4 -38 2 -14 -4 -33 -12 -42 -13 -14 -13 -21 -3 -33 7 -8 16 -12 21 -9 5 3
9 -2 9 -11 0 -9 -4 -14 -9 -10 -5 3 -12 -3 -14 -12 -4 -16 -5 -16 -6 1 -1 12
-6 16 -17 12 -9 -3 -20 -6 -25 -6 -6 0 -7 -5 -4 -11 4 -6 13 -8 20 -5 9 3 11
-2 7 -16 -4 -18 -3 -19 17 -7 11 8 21 18 22 24 0 5 7 -3 15 -20 13 -28 14 -26
8 35 -4 36 -8 76 -9 90 -2 31 -25 159 -31 180 -3 8 -7 44 -9 79 -1 39 -8 67
-16 73 -9 6 -10 11 -3 14 7 3 6 34 -3 102 -23 168 -43 325 -47 372 -5 54 -15
82 -27 74 -5 -3 -9 0 -9 5 0 6 5 11 10 11 6 0 10 14 10 30 0 17 -5 30 -11 30
-5 0 -8 4 -4 9 8 14 -17 155 -30 163 -6 5 -6 8 2 8 13 0 12 37 0 70 -3 8 -8
51 -12 95 -3 44 -10 96 -14 115 -5 19 -13 77 -16 128 -7 87 -16 115 -30 92z
m138 -1007 c5 -26 4 -26 -9 -8 -16 22 -18 35 -5 35 5 0 11 -12 14 -27z m37
-238 c0 -8 -4 -15 -10 -15 -5 0 -7 7 -4 15 4 8 8 15 10 15 2 0 4 -7 4 -15z m0
-45 c0 -5 -4 -10 -10 -10 -5 0 -10 5 -10 10 0 6 5 10 10 10 6 0 10 -4 10 -10z"/>
<path d="M4217 2354 c2 -7 11 -10 19 -7 19 7 18 10 -5 16 -13 3 -18 1 -14 -9z"/>
<path d="M10423 2363 c-7 -2 -13 -9 -13 -15 0 -7 4 -7 13 0 6 5 21 12 32 15
l20 5 -20 0 c-11 0 -26 -2 -32 -5z"/>
<path d="M6025 2340 c-3 -5 -1 -10 4 -10 6 0 11 5 11 10 0 6 -2 10 -4 10 -3 0
-8 -4 -11 -10z"/>
<path d="M6520 2330 c0 -5 4 -10 9 -10 6 0 13 5 16 10 3 6 -1 10 -9 10 -9 0
-16 -4 -16 -10z"/>
<path d="M4230 2320 c0 -5 5 -10 10 -10 6 0 10 5 10 10 0 6 -4 10 -10 10 -5 0
-10 -4 -10 -10z"/>
<path d="M7720 2320 c0 -5 7 -10 15 -10 8 0 15 5 15 10 0 6 -7 10 -15 10 -8 0
-15 -4 -15 -10z"/>
<path d="M5160 2290 c0 -5 5 -10 11 -10 5 0 7 5 4 10 -3 6 -8 10 -11 10 -2 0
-4 -4 -4 -10z"/>
<path d="M6520 2293 c0 -15 19 -37 26 -31 3 4 -1 14 -10 23 -9 9 -16 13 -16 8z"/>
<path d="M9026 2273 c-6 -14 -5 -15 5 -6 7 7 10 15 7 18 -3 3 -9 -2 -12 -12z"/>
<path d="M9826 2271 c-4 -5 3 -7 14 -4 23 6 26 13 6 13 -8 0 -17 -4 -20 -9z"/>
<path d="M10273 2263 c-18 -9 -33 -20 -33 -24 0 -7 58 21 79 38 12 9 -18 0
-46 -14z"/>
<path d="M8790 2266 c0 -2 7 -9 15 -16 13 -11 14 -10 9 4 -5 14 -24 23 -24 12z"/>
<path d="M6570 2251 c0 -6 4 -13 10 -16 6 -3 7 1 4 9 -7 18 -14 21 -14 7z"/>
<path d="M8320 2200 c0 -5 5 -10 11 -10 5 0 7 5 4 10 -3 6 -8 10 -11 10 -2 0
-4 -4 -4 -10z"/>
<path d="M10703 2165 c0 -22 2 -30 4 -17 2 12 2 30 0 40 -3 9 -5 -1 -4 -23z"/>
<path d="M4100 2177 c0 -8 7 -17 15 -21 8 -3 15 -2 15 3 0 5 -7 14 -15 21 -12
10 -15 10 -15 -3z"/>
<path d="M5800 2179 c0 -5 5 -7 10 -4 6 3 10 8 10 11 0 2 -4 4 -10 4 -5 0 -10
-5 -10 -11z"/>
<path d="M10143 2164 c-20 -18 -22 -22 -7 -15 21 10 52 41 41 41 -3 0 -19 -12
-34 -26z"/>
<path d="M3871 2004 c1 -90 6 -161 11 -158 4 3 6 10 3 15 -9 14 11 11 24 -4
12 -15 -3 -37 -26 -37 -10 0 -13 -64 -13 -320 0 -176 2 -320 4 -320 3 0 25 64
50 143 35 112 48 170 59 275 l13 134 -25 9 c-19 8 -22 12 -12 19 8 4 20 6 28
3 21 -8 15 13 -9 31 l-23 17 25 -5 c25 -5 25 -4 26 58 1 35 4 97 8 138 l7 75
-39 43 c-32 36 -46 44 -76 45 l-37 2 2 -163z m99 -99 c-7 -9 -15 -13 -17 -11
-7 7 7 26 19 26 6 0 6 -6 -2 -15z"/>
<path d="M4214 2143 c4 -9 3 -19 -2 -22 -12 -8 4 -51 18 -51 5 0 10 5 10 10 0
6 -4 10 -10 10 -5 0 -10 5 -10 11 0 5 5 7 12 3 8 -5 9 -2 5 10 -4 10 -7 24 -7
32 0 8 -5 14 -11 14 -6 0 -8 -7 -5 -17z"/>
<path d="M4090 2143 c0 -14 30 -53 41 -53 6 0 9 10 7 23 -2 12 -7 22 -13 22
-5 0 -16 4 -22 8 -7 5 -13 4 -13 0z"/>
<path d="M5796 2143 c6 -4 14 -15 17 -23 5 -11 6 -9 4 4 -1 11 -9 21 -17 23
-10 3 -11 2 -4 -4z"/>
<path d="M8810 2135 c-7 -9 -11 -18 -8 -20 3 -3 11 1 18 10 7 9 11 18 8 20 -3
3 -11 -1 -18 -10z"/>
<path d="M6566 2125 c-9 -26 -7 -32 5 -12 6 10 9 21 6 23 -2 3 -7 -2 -11 -11z"/>
<path d="M10712 2085 c0 -22 6 -83 13 -135 l14 -95 -6 89 c-3 48 -9 109 -13
135 l-8 46 0 -40z"/>
<path d="M6015 2090 c-3 -5 -1 -10 4 -10 6 0 11 5 11 10 0 6 -2 10 -4 10 -3 0
-8 -4 -11 -10z"/>
<path d="M6520 2084 c0 -8 5 -12 10 -9 6 3 10 10 10 16 0 5 -4 9 -10 9 -5 0
-10 -7 -10 -16z"/>
<path d="M4152 2074 c-7 -8 -8 -14 -3 -14 10 0 25 19 20 25 -2 1 -10 -3 -17
-11z"/>
<path d="M4635 2040 c3 -5 8 -10 11 -10 2 0 4 5 4 10 0 6 -5 10 -11 10 -5 0
-7 -4 -4 -10z"/>
<path d="M6520 2031 c0 -5 5 -13 10 -16 6 -3 10 -2 10 4 0 5 -4 13 -10 16 -5
3 -10 2 -10 -4z"/>
<path d="M10404 1995 c3 -22 5 -51 5 -65 1 -19 4 -21 10 -11 10 16 4 77 -10
101 -6 10 -7 1 -5 -25z"/>
<path d="M8817 2005 c3 -8 9 -12 14 -9 12 7 11 11 -5 17 -10 4 -13 1 -9 -8z"/>
<path d="M6560 2001 c0 -6 4 -13 10 -16 6 -3 7 1 4 9 -7 18 -14 21 -14 7z"/>
<path d="M9335 2000 c-3 -6 1 -7 9 -4 18 7 21 14 7 14 -6 0 -13 -4 -16 -10z"/>
<path d="M4930 1930 c-10 -29 -10 -44 -3 -51 19 -19 33 1 33 47 0 55 -13 57
-30 4z"/>
<path d="M9060 1960 c0 -5 4 -10 9 -10 6 0 13 5 16 10 3 6 -1 10 -9 10 -9 0
-16 -4 -16 -10z"/>
<path d="M6688 1953 c7 -3 16 -2 19 1 4 3 -2 6 -13 5 -11 0 -14 -3 -6 -6z"/>
<path d="M4085 1930 c3 -5 11 -10 16 -10 6 0 7 5 4 10 -3 6 -11 10 -16 10 -6
0 -7 -4 -4 -10z"/>
<path d="M4197 1923 c-4 -6 -3 -14 3 -18 5 -3 10 -11 10 -17 0 -7 -6 -6 -15 2
-9 8 -15 9 -15 2 0 -6 5 -14 10 -17 6 -3 10 -15 10 -25 0 -10 5 -22 11 -26 8
-5 10 1 5 19 -3 14 -2 27 3 29 5 2 4 16 -3 33 -8 18 -15 25 -19 18z"/>
<path d="M4220 1920 c0 -5 5 -10 10 -10 6 0 10 5 10 10 0 6 -4 10 -10 10 -5 0
-10 -4 -10 -10z"/>
<path d="M5325 1920 c3 -5 8 -10 11 -10 2 0 4 5 4 10 0 6 -5 10 -11 10 -5 0
-7 -4 -4 -10z"/>
<path d="M7310 1920 c-8 -5 -10 -10 -5 -10 6 0 17 5 25 10 8 5 11 10 5 10 -5
0 -17 -5 -25 -10z"/>
<path d="M4060 1914 c0 -3 9 -19 21 -35 21 -30 40 -31 38 -1 0 11 -3 12 -6 5
-8 -21 -20 -15 -27 12 -5 21 -26 36 -26 19z"/>
<path d="M7360 1916 c0 -2 7 -7 16 -10 8 -3 12 -2 9 4 -6 10 -25 14 -25 6z"/>
<path d="M7300 1884 c-37 -20 -40 -23 -15 -18 17 4 39 15 50 25 24 23 22 23
-35 -7z"/>
<path d="M8796 1878 c-29 -45 -38 -113 -34 -252 3 -75 7 -138 10 -141 6 -6 18
151 18 239 0 34 7 86 15 116 16 61 14 73 -9 38z"/>
<path d="M7380 1883 c0 -6 8 -17 18 -24 16 -13 16 -13 2 6 -8 11 -16 22 -17
24 -2 2 -3 0 -3 -6z"/>
<path d="M8060 1876 c0 -2 8 -10 18 -17 15 -13 16 -12 3 4 -13 16 -21 21 -21
13z"/>
<path d="M4136 1834 c-11 -7 -18 -16 -15 -18 2 -2 13 2 23 10 11 7 18 16 15
18 -2 2 -13 -2 -23 -10z"/>
<path d="M4373 1795 c0 -33 2 -45 4 -27 2 18 2 45 0 60 -2 15 -4 0 -4 -33z"/>
<path d="M8107 1839 c7 -7 15 -10 18 -7 3 3 -2 9 -12 12 -14 6 -15 5 -6 -5z"/>
<path d="M10741 1820 c-1 -31 26 -264 44 -380 19 -114 13 -24 -9 160 -22 179
-33 251 -35 220z"/>
<path d="M5502 1800 c0 -19 2 -27 5 -17 2 9 2 25 0 35 -3 9 -5 1 -5 -18z"/>
<path d="M7201 1776 c-12 -18 -21 -36 -21 -39 0 -4 19 -17 43 -31 40 -23 45
-24 102 -12 56 11 61 14 72 46 10 30 9 37 -5 48 -22 17 -39 15 -63 -7 -16 -15
-18 -23 -9 -45 5 -15 10 -29 10 -32 0 -8 -75 -3 -90 6 -13 9 -11 14 13 31 15
11 27 29 27 39 0 13 9 20 28 23 15 2 1 5 -30 6 -54 1 -57 0 -77 -33z"/>
<path d="M7815 1779 c-22 -10 -51 -19 -65 -20 -17 -1 -20 -3 -7 -6 20 -5 83
14 112 33 27 19 8 16 -40 -7z"/>
<path d="M10420 1761 c0 -11 4 -21 9 -21 18 0 21 18 6 30 -13 10 -15 9 -15 -9z"/>
<path d="M7130 1742 c0 -17 37 -89 50 -97 15 -9 13 -3 -20 56 -16 30 -30 48
-30 41z"/>
<path d="M4130 1715 c0 -8 4 -15 10 -15 5 0 7 7 4 15 -4 8 -8 15 -10 15 -2 0
-4 -7 -4 -15z"/>
<path d="M4276 1623 c-34 -597 -35 -619 -24 -600 4 9 10 48 13 89 11 158 27
609 22 614 -3 3 -8 -44 -11 -103z"/>
<path d="M10420 1723 c0 -5 4 -15 10 -23 11 -18 25 -7 17 15 -6 15 -27 21 -27
8z"/>
<path d="M4920 1701 c0 -11 -4 -23 -10 -26 -5 -3 -10 -16 -9 -28 0 -21 1 -21
9 -2 7 17 9 16 9 -9 1 -45 18 -19 24 37 3 36 1 47 -9 47 -8 0 -14 -9 -14 -19z"/>
<path d="M4065 1690 c3 -5 8 -10 11 -10 2 0 4 5 4 10 0 6 -5 10 -11 10 -5 0
-7 -4 -4 -10z"/>
<path d="M4110 1690 c0 -5 5 -10 11 -10 5 0 7 5 4 10 -3 6 -8 10 -11 10 -2 0
-4 -4 -4 -10z"/>
<path d="M4174 1678 c-2 -4 3 -11 12 -16 11 -6 13 -11 5 -16 -6 -4 -11 -2 -11
4 0 6 -4 9 -9 6 -11 -7 16 -66 30 -66 6 0 6 7 0 18 -6 11 -6 23 -2 28 5 5 12
18 15 29 5 16 1 21 -15 21 -11 0 -22 -4 -25 -8z"/>
<path d="M4360 1648 c-1 -24 -3 -69 -7 -100 -4 -40 -2 -58 6 -58 7 0 11 33 11
100 0 55 -2 100 -5 100 -3 0 -5 -19 -5 -42z"/>
<path d="M5477 1485 c-16 -178 -53 -552 -72 -730 -3 -27 -8 -66 -10 -85 -2
-19 -8 -64 -14 -100 -13 -81 -19 -200 -10 -194 4 2 -2 -13 -13 -34 -15 -28
-18 -50 -14 -89 2 -29 0 -55 -5 -58 -5 -4 -9 -21 -9 -40 0 -28 3 -32 20 -28
11 3 18 8 16 12 -3 4 0 25 5 47 9 35 26 179 34 289 10 142 18 218 35 355 12
85 25 175 29 199 5 25 5 57 0 75 -5 17 -7 54 -4 81 2 28 7 86 10 130 3 44 10
134 16 200 6 66 9 134 8 150 -2 17 -12 -64 -22 -180z"/>
<path d="M4051 1670 c0 -17 22 -50 34 -50 5 0 1 8 -7 18 -9 9 -18 24 -21 32
-5 13 -5 13 -6 0z"/>
<path d="M7268 1658 c-14 -12 -12 -19 18 -65 26 -40 40 -53 59 -53 14 0 25 3
25 7 0 10 -74 123 -81 123 -3 0 -12 -6 -21 -12z"/>
<path d="M8040 1652 c-24 -4 -90 -64 -90 -83 0 -17 17 -9 28 14 6 12 11 16 11
8 1 -11 4 -11 18 0 15 12 16 12 10 -3 -4 -12 0 -21 13 -28 14 -7 20 -7 20 0 0
5 4 10 10 10 5 0 7 -6 4 -13 -3 -10 4 -14 25 -14 40 0 27 17 -35 46 -46 22
-54 35 -28 45 28 11 66 7 61 -6 -3 -9 6 -13 26 -14 28 -1 29 0 12 12 -10 8
-23 14 -28 14 -4 0 -6 4 -2 9 5 10 -5 10 -55 3z"/>
<path d="M7230 1605 c-7 -8 -9 -15 -4 -16 5 0 -4 -6 -20 -14 l-30 -12 24 -8
c16 -5 26 -3 28 4 3 8 9 5 18 -7 9 -13 21 -18 34 -15 19 5 19 5 -1 44 -21 43
-30 47 -49 24z"/>
<path d="M4130 1601 c0 -8 -7 -11 -15 -7 -17 6 -19 -2 -6 -23 7 -11 11 -9 21
9 6 12 9 24 6 28 -3 3 -6 0 -6 -7z"/>
<path d="M5995 1590 c-3 -5 -1 -10 4 -10 6 0 11 5 11 10 0 6 -2 10 -4 10 -3 0
-8 -4 -11 -10z"/>
<path d="M5980 1556 c0 -2 7 -7 16 -10 8 -3 12 -2 9 4 -6 10 -25 14 -25 6z"/>
<path d="M4615 1530 c3 -5 8 -10 11 -10 2 0 4 5 4 10 0 6 -5 10 -11 10 -5 0
-7 -4 -4 -10z"/>
<path d="M9830 1530 c0 -5 5 -10 10 -10 6 0 10 5 10 10 0 6 -4 10 -10 10 -5 0
-10 -4 -10 -10z"/>
<path d="M7970 1526 c0 -2 8 -10 18 -17 15 -13 16 -12 3 4 -13 16 -21 21 -21
13z"/>
<path d="M8085 1520 c3 -5 13 -10 21 -10 8 0 14 5 14 10 0 6 -9 10 -21 10 -11
0 -17 -4 -14 -10z"/>
<path d="M10447 1523 c-11 -10 -8 -25 3 -18 6 3 10 2 10 -4 0 -5 -6 -11 -12
-14 -9 -3 -6 -12 10 -28 18 -20 22 -21 22 -6 0 9 -4 17 -8 17 -5 0 -7 14 -4
30 4 28 -6 39 -21 23z"/>
<path d="M13643 1513 c9 -2 23 -2 30 0 6 3 -1 5 -18 5 -16 0 -22 -2 -12 -5z"/>
<path d="M4098 1468 c-10 -10 -14 -18 -9 -18 6 0 13 5 17 11 5 8 9 8 14 -1 4
-7 10 -8 13 -4 3 5 0 14 -7 19 -8 7 -16 5 -28 -7z"/>
<path d="M4030 1472 c0 -12 19 -26 26 -19 2 2 -2 10 -11 17 -9 8 -15 8 -15 2z"/>
<path d="M4901 1447 c-6 -16 -8 -40 -5 -54 6 -22 8 -23 22 -10 11 12 12 23 5
54 l-10 38 -12 -28z"/>
<path d="M4020 1440 c1 -21 26 -64 32 -54 3 5 -3 23 -13 39 -11 17 -19 23 -19
15z"/>
<path d="M4155 1421 c-13 -26 -13 -30 1 -35 9 -4 14 -13 10 -21 -3 -9 0 -15 9
-15 9 0 14 9 14 23 0 12 2 32 6 43 11 35 -22 39 -40 5z"/>
<path d="M13525 1440 c-3 -5 0 -10 8 -10 8 0 30 -2 48 -5 l34 -5 -35 14 c-44
18 -47 18 -55 6z"/>
<path d="M7172 1340 c-2 -87 -1 -90 21 -95 33 -9 100 -2 104 10 2 6 -16 10
-39 10 l-43 0 0 40 c0 39 1 40 33 37 21 -1 31 2 27 8 -3 5 -17 10 -31 10 -19
0 -24 5 -24 26 0 26 1 27 47 20 37 -5 45 -4 35 6 -7 7 -38 13 -70 15 l-57 2
-3 -89z"/>
<path d="M7880 1408 c-14 -12 -20 -23 -14 -25 6 -2 9 -17 6 -33 -7 -48 6 -100
26 -100 15 0 17 9 14 71 -3 62 -2 71 12 66 9 -4 16 -2 16 3 0 6 -6 10 -14 10
-8 0 -16 6 -18 14 -2 12 -8 10 -28 -6z"/>
<path d="M5751 1393 c7 -12 15 -20 18 -17 3 2 -3 12 -13 22 -17 16 -18 16 -5
-5z"/>
<path d="M6861 1394 c0 -11 3 -14 6 -6 3 7 2 16 -1 19 -3 4 -6 -2 -5 -13z"/>
<path d="M8847 1403 c-10 -9 -9 -23 2 -23 5 0 11 7 15 15 5 15 -5 20 -17 8z"/>
<path d="M4740 1390 c0 -5 5 -10 11 -10 5 0 7 5 4 10 -3 6 -8 10 -11 10 -2 0
-4 -4 -4 -10z"/>
<path d="M7554 1384 c3 -9 6 -42 6 -75 0 -55 2 -59 23 -59 21 0 22 3 19 62 -2
43 -8 67 -20 76 -22 17 -35 15 -28 -4z"/>
<path d="M7634 1343 c2 -32 4 -66 5 -75 1 -10 9 -18 19 -18 14 0 17 9 17 57 0
53 2 58 23 61 12 2 22 7 22 11 0 16 -13 20 -31 11 -12 -7 -20 -7 -24 0 -3 5
-12 10 -20 10 -11 0 -13 -13 -11 -57z"/>
<path d="M7755 1390 c-4 -6 5 -10 19 -10 37 0 32 -24 -9 -46 -38 -20 -57 -61
-35 -74 7 -4 33 -8 59 -8 l46 0 -3 62 c-2 41 -9 65 -20 74 -19 15 -48 16 -57
2z m45 -90 c0 -25 -4 -30 -25 -30 -30 0 -35 33 -7 49 27 16 32 13 32 -19z"/>
<path d="M7966 1378 c-22 -31 -20 -84 4 -108 22 -22 75 -27 86 -8 5 8 0 9 -16
5 -25 -7 -50 7 -50 28 0 6 12 18 26 25 14 8 30 23 35 33 24 44 -56 67 -85 25z
m61 -3 c5 -16 -22 -55 -39 -55 -11 0 -10 27 2 51 13 23 28 25 37 4z"/>
<path d="M8087 1393 c-16 -15 -5 -51 24 -76 27 -23 29 -30 18 -43 -7 -8 -21
-13 -31 -11 -10 3 -18 1 -18 -4 0 -12 37 -11 61 1 29 16 24 54 -12 84 -34 29
-30 51 8 41 16 -4 22 -2 18 5 -7 11 -58 14 -68 3z"/>
<path d="M7324 1374 c3 -9 6 -42 6 -75 0 -50 3 -59 18 -59 15 0 17 9 17 58 0
52 2 57 23 60 21 3 22 0 22 -57 0 -52 3 -61 18 -61 15 0 18 9 18 55 0 56 13
83 33 71 6 -4 11 -31 11 -60 0 -45 3 -54 20 -59 18 -5 20 0 20 57 0 35 -5 67
-12 74 -15 15 -50 16 -65 1 -8 -8 -13 -8 -17 0 -9 14 -49 14 -63 0 -8 -8 -13
-8 -17 0 -11 18 -39 13 -32 -5z"/>
<path d="M3940 1329 c-7 -24 -25 -82 -40 -129 -25 -74 -29 -100 -29 -208 0
-77 3 -121 9 -117 6 3 10 -5 10 -19 0 -14 -4 -28 -10 -31 -6 -4 -10 -54 -10
-117 0 -111 8 -139 16 -56 2 24 9 77 15 118 12 80 14 103 23 219 5 59 3 77 -9
91 -20 22 -10 56 11 39 11 -9 14 -7 15 12 1 13 1 31 0 40 -1 8 3 55 8 104 6
49 9 91 6 93 -2 2 -9 -16 -15 -39z"/>
<path d="M4116 1355 c-9 -26 -7 -32 5 -12 6 10 9 21 6 23 -2 3 -7 -2 -11 -11z"/>
<path d="M4346 1354 c-9 -25 -7 -64 4 -64 6 0 10 18 10 40 0 43 -4 50 -14 24z"/>
<path d="M1550 1330 c0 -16 -7 -20 -30 -20 -29 0 -30 -1 -30 -50 0 -38 4 -52
19 -60 30 -15 31 -14 32 43 l1 52 8 -49 c11 -64 17 -76 35 -76 11 0 14 7 11
23 -3 12 -8 52 -11 90 -5 48 -11 67 -21 67 -8 0 -14 -9 -14 -20z"/>
<path d="M5980 1340 c0 -5 5 -10 10 -10 6 0 10 5 10 10 0 6 -4 10 -10 10 -5 0
-10 -4 -10 -10z"/>
<path d="M9838 1343 c7 -3 16 -2 19 1 4 3 -2 6 -13 5 -11 0 -14 -3 -6 -6z"/>
<path d="M4085 1330 c3 -5 8 -10 11 -10 2 0 4 5 4 10 0 6 -5 10 -11 10 -5 0
-7 -4 -4 -10z"/>
<path d="M6830 1325 c0 -8 4 -15 10 -15 5 0 7 7 4 15 -4 8 -8 15 -10 15 -2 0
-4 -7 -4 -15z"/>
<path d="M10798 1295 c2 -25 7 -45 11 -45 3 0 5 20 3 45 -2 25 -7 45 -11 45
-3 0 -5 -20 -3 -45z"/>
<path d="M6858 1308 c-3 -7 -1 -22 3 -33 4 -11 17 -69 27 -130 11 -60 26 -141
33 -179 7 -43 12 -167 12 -320 1 -147 4 -228 8 -196 21 161 4 503 -36 720 -24
129 -37 167 -47 138z"/>
<path d="M5980 1289 c7 -11 14 -19 16 -16 7 7 -7 37 -17 37 -6 0 -5 -9 1 -21z"/>
<path d="M9840 1301 c0 -5 5 -13 10 -16 6 -3 10 -2 10 4 0 5 -4 13 -10 16 -5
3 -10 2 -10 -4z"/>
<path d="M4931 1284 c0 -11 3 -14 6 -6 3 7 2 16 -1 19 -3 4 -6 -2 -5 -13z"/>
<path d="M4097 1283 c-4 -3 -7 -11 -7 -17 0 -6 5 -5 12 2 6 6 9 14 7 17 -3 3
-9 2 -12 -2z"/>
<path d="M4600 1283 c0 -14 31 -46 37 -39 3 3 -4 15 -16 27 -12 13 -21 18 -21
12z"/>
<path d="M8485 1250 c-4 -23 -5 -43 -2 -46 2 -3 7 14 11 37 4 23 5 44 2 46 -2
2 -7 -14 -11 -37z"/>
<path d="M8850 1275 c7 -8 17 -15 22 -15 6 0 5 7 -2 15 -7 8 -17 15 -22 15 -6
0 -5 -7 2 -15z"/>
<path d="M10480 1279 c0 -5 -4 -7 -10 -4 -5 3 -10 4 -10 1 0 -3 9 -10 19 -15
16 -9 18 -8 14 9 -6 21 -13 27 -13 9z"/>
<path d="M13244 1274 c-18 -14 -18 -14 6 -3 31 14 36 19 24 19 -6 0 -19 -7
-30 -16z"/>
<path d="M1415 1270 c-5 -9 42 -47 49 -39 2 2 7 14 10 27 7 19 4 22 -23 22
-16 0 -32 -4 -36 -10z"/>
<path d="M4340 1266 c0 -9 5 -16 10 -16 6 0 10 4 10 9 0 6 -4 13 -10 16 -5 3
-10 -1 -10 -9z"/>
<path d="M14350 1271 c0 -6 4 -13 10 -16 6 -3 7 1 4 9 -7 18 -14 21 -14 7z"/>
<path d="M4100 1244 c0 -13 18 -39 24 -34 2 3 -2 14 -10 24 -8 11 -14 16 -14
10z"/>
<path d="M10460 1244 c0 -3 9 -17 20 -31 19 -24 20 -25 20 -5 0 12 -9 26 -20
32 -11 6 -20 8 -20 4z"/>
<path d="M4010 1231 c0 -5 5 -13 10 -16 6 -3 10 -2 10 4 0 5 -4 13 -10 16 -5
3 -10 2 -10 -4z"/>
<path d="M4070 1230 c-8 -5 -12 -11 -9 -14 2 -3 11 -1 19 4 8 5 12 11 9 14 -2
3 -11 1 -19 -4z"/>
<path d="M6550 1230 c0 -5 5 -10 10 -10 6 0 10 5 10 10 0 6 -4 10 -10 10 -5 0
-10 -4 -10 -10z"/>
<path d="M10811 1230 c0 -8 4 -22 9 -30 12 -18 12 -2 0 25 -6 13 -9 15 -9 5z"/>
<path d="M13170 1230 c-9 -6 -10 -10 -3 -10 6 0 15 5 18 10 8 12 4 12 -15 0z"/>
<path d="M14400 1210 c6 -11 13 -20 16 -20 2 0 0 9 -6 20 -6 11 -13 20 -16 20
-2 0 0 -9 6 -20z"/>
<path d="M4882 1211 c-7 -4 -14 -25 -17 -47 -2 -21 -1 -33 2 -26 4 10 8 10 19
1 11 -9 14 -8 15 2 7 72 4 84 -19 70z"/>
<path d="M4162 1202 c-12 -2 -20 -7 -17 -12 3 -5 1 -11 -5 -15 -15 -10 -12
-45 5 -45 9 0 12 -6 9 -15 -4 -8 -1 -15 6 -15 8 0 11 12 8 35 -2 19 -1 35 3
35 7 0 22 31 17 34 -2 1 -13 0 -26 -2z"/>
<path d="M4000 1196 c0 -2 9 -6 20 -9 11 -3 18 -1 14 4 -5 9 -34 13 -34 5z"/>
<path d="M6550 1183 c0 -13 5 -23 10 -23 13 0 13 11 0 30 -8 12 -10 11 -10 -7z"/>
<path d="M7461 1143 c0 -34 -4 -68 -7 -77 -3 -9 -1 -16 5 -16 6 0 13 12 17 28
3 15 12 46 20 70 17 51 17 52 4 52 -5 0 -10 -9 -10 -19 0 -31 -18 -34 -23 -4
-2 16 -5 0 -6 -34z"/>
<path d="M7576 1153 c-4 -27 -9 -60 -12 -75 -4 -20 -1 -28 8 -28 32 0 48 25
54 88 6 61 5 62 -19 62 -22 0 -25 -5 -31 -47z m30 -10 c-11 -11 -17 4 -9 23 7
18 8 18 11 1 2 -10 1 -21 -2 -24z m-3 -53 c-3 -11 -9 -20 -14 -20 -10 0 -11
12 -3 34 9 22 23 10 17 -14z"/>
<path d="M7666 1178 c-3 -13 -8 -44 -11 -70 -6 -48 -6 -48 22 -47 17 1 21 3
11 6 -10 2 -18 13 -18 23 0 11 8 24 18 30 12 8 13 13 5 16 -19 8 -16 41 5 53
15 9 15 10 -5 11 -16 0 -24 -7 -27 -22z"/>
<path d="M7739 1191 c12 -8 13 -20 4 -68 -6 -32 -9 -60 -6 -63 9 -9 21 23 26
73 4 28 12 54 19 59 8 5 0 8 -22 8 -25 0 -31 -3 -21 -9z"/>
<path d="M7817 1182 c2 -11 0 -42 -5 -71 -7 -37 -6 -51 2 -48 6 2 14 30 18 62
4 32 13 62 20 67 9 5 4 8 -14 8 -20 0 -25 -4 -21 -18z"/>
<path d="M7887 1193 c-2 -5 -7 -36 -11 -70 -7 -61 -6 -63 16 -62 13 0 17 3 11
6 -20 8 -16 53 5 53 15 1 15 2 2 13 -19 15 -14 54 8 60 12 3 11 5 -5 6 -12 0
-24 -2 -26 -6z"/>
<path d="M7956 1168 c-3 -18 -8 -50 -11 -70 -4 -24 -2 -38 5 -38 5 0 10 12 10
26 0 14 4 23 10 19 6 -3 10 -15 10 -25 0 -10 4 -21 9 -25 5 -3 10 14 10 37 0
24 2 57 3 73 2 24 -1 31 -19 33 -18 3 -23 -3 -27 -30z m34 -8 c0 -16 -4 -30
-10 -30 -11 0 -14 43 -3 53 11 12 13 8 13 -23z"/>
<path d="M7317 1123 c-8 -38 -14 -70 -12 -72 9 -9 25 13 25 35 0 15 6 24 15
24 8 0 15 5 15 10 0 6 -4 10 -10 10 -19 0 -10 37 13 48 22 11 22 11 -4 11 -25
1 -28 -4 -42 -66z"/>
<path d="M7388 1123 c-14 -65 -13 -68 5 -71 24 -4 36 6 19 17 -10 6 -10 18 -3
52 13 55 13 69 2 69 -4 0 -15 -30 -23 -67z"/>
<path d="M4017 1164 c6 -15 23 -19 23 -5 0 5 -7 11 -14 14 -10 4 -13 1 -9 -9z"/>
<path d="M5275 1170 c3 -5 8 -10 11 -10 2 0 4 5 4 10 0 6 -5 10 -11 10 -5 0
-7 -4 -4 -10z"/>
<path d="M10822 1127 c1 -31 6 -57 10 -57 7 0 -1 101 -9 110 -2 3 -3 -21 -1
-53z"/>
<path d="M4705 1160 c3 -5 8 -10 11 -10 2 0 4 5 4 10 0 6 -5 10 -11 10 -5 0
-7 -4 -4 -10z"/>
<path d="M8863 1154 c-15 -16 -16 -24 -4 -24 8 0 24 30 19 35 -2 2 -9 -3 -15
-11z"/>
<path d="M5730 1140 c6 -11 15 -20 20 -20 6 0 2 9 -7 20 -10 11 -19 20 -21 20
-1 0 2 -9 8 -20z"/>
<path d="M14450 1144 c0 -6 7 -19 16 -30 14 -18 14 -18 3 6 -14 31 -19 36 -19
24z"/>
<path d="M2322 1128 c-19 -19 -14 -30 8 -18 11 6 20 15 20 20 0 14 -14 12 -28
-2z"/>
<path d="M4100 1105 c-8 -9 -8 -15 -2 -15 12 0 26 19 19 26 -2 2 -10 -2 -17
-11z"/>
<path d="M6510 1109 c0 -5 5 -7 10 -4 6 3 10 8 10 11 0 2 -4 4 -10 4 -5 0 -10
-5 -10 -11z"/>
<path d="M9857 1113 c-10 -9 -9 -23 1 -23 5 0 9 7 9 15 0 17 -1 18 -10 8z"/>
<path d="M2340 1095 c-16 -19 6 -53 24 -35 5 5 14 10 18 10 12 0 6 -33 -7 -42
-5 -4 4 -8 20 -8 29 -1 29 -1 11 -15 -15 -11 -17 -18 -9 -26 17 -17 43 -3 43
24 0 22 -63 107 -80 107 -4 0 -13 -7 -20 -15z"/>
<path d="M4910 1090 c0 -5 5 -10 10 -10 6 0 10 5 10 10 0 6 -4 10 -10 10 -5 0
-10 -4 -10 -10z"/>
<path d="M4325 1057 c3 -16 1 -35 -6 -43 -9 -11 -8 -14 4 -14 22 0 27 22 11
55 l-14 30 5 -28z"/>
<path d="M14507 1045 c9 -19 18 -33 21 -31 4 5 -26 66 -33 66 -3 0 3 -16 12
-35z"/>
<path d="M1362 1007 c-6 -34 -14 -90 -18 -124 l-6 -62 33 -20 c31 -19 49 -20
49 -2 0 4 -11 13 -25 19 -21 10 -25 18 -25 54 0 51 12 73 34 65 20 -8 21 7 1
23 -15 13 -20 51 -9 63 4 3 20 -1 36 -9 17 -9 33 -13 36 -9 9 9 -19 32 -59 49
l-36 15 -11 -62z"/>
<path d="M4590 1060 c0 -5 4 -10 9 -10 6 0 13 5 16 10 3 6 -1 10 -9 10 -9 0
-16 -4 -16 -10z"/>
<path d="M4911 1053 c-1 -12 4 -25 9 -28 12 -7 12 2 0 30 -8 19 -9 19 -9 -2z"/>
<path d="M8810 1066 c0 -2 7 -6 15 -10 8 -3 15 -1 15 4 0 6 -7 10 -15 10 -8 0
-15 -2 -15 -4z"/>
<path d="M9846 1063 c5 -5 12 -12 16 -18 4 -6 8 -2 8 8 0 9 -7 17 -17 17 -9 0
-12 -3 -7 -7z"/>
<path d="M5967 1039 c4 -13 8 -18 11 -10 2 7 -1 18 -6 23 -8 8 -9 4 -5 -13z"/>
<path d="M8453 1020 c0 -25 2 -35 4 -22 2 12 2 32 0 45 -2 12 -4 2 -4 -23z"/>
<path d="M10837 1000 c3 -36 9 -74 13 -85 11 -28 2 71 -10 115 -7 28 -8 22 -3
-30z"/>
<path d="M4081 1033 c-1 -26 19 -73 31 -73 12 0 10 18 -3 22 -6 2 -14 19 -19
38 -5 23 -8 27 -9 13z"/>
<path d="M8860 1045 c0 -18 19 -40 26 -32 4 4 0 15 -9 24 -9 10 -17 13 -17 8z"/>
<path d="M4580 1036 c0 -4 9 -16 20 -28 11 -12 20 -17 20 -11 0 5 -9 18 -20
28 -11 10 -20 15 -20 11z"/>
<path d="M10495 1030 c-3 -5 1 -10 9 -10 9 0 16 5 16 10 0 6 -4 10 -9 10 -6 0
-13 -4 -16 -10z"/>
<path d="M5200 1006 c0 -2 8 -10 18 -17 15 -13 16 -12 3 4 -13 16 -21 21 -21
13z"/>
<path d="M10480 1004 c0 -13 41 -46 47 -39 5 4 2 10 -5 12 -8 3 -10 9 -3 16 6
9 2 12 -15 13 -13 1 -24 0 -24 -2z"/>
<path d="M3994 976 c-7 -28 3 -66 17 -66 5 0 9 5 9 10 0 6 -5 10 -11 10 -8 0
-10 12 -6 35 7 40 0 47 -9 11z"/>
<path d="M4047 993 c-12 -12 -7 -22 8 -17 8 4 15 10 15 15 0 11 -14 12 -23 2z"/>
<path d="M9067 970 c-3 -11 -1 -20 4 -20 5 0 9 9 9 20 0 11 -2 20 -4 20 -2 0
-6 -9 -9 -20z"/>
<path d="M14550 975 c0 -5 5 -17 10 -25 5 -8 10 -10 10 -5 0 6 -5 17 -10 25
-5 8 -10 11 -10 5z"/>
<path d="M1477 963 c-11 -20 -38 -153 -35 -174 4 -31 28 -37 28 -7 0 34 28
126 41 134 6 3 16 1 22 -5 8 -8 6 -30 -6 -82 -18 -76 -17 -84 12 -92 16 -4 19
3 24 47 8 74 22 106 48 106 20 0 21 -3 14 -47 -5 -27 -9 -66 -9 -88 -1 -33 3
-41 19 -43 16 -2 20 3 21 25 0 15 7 57 14 92 14 62 14 64 -8 82 -17 13 -29 16
-46 9 -18 -6 -27 -4 -40 12 -12 13 -25 18 -39 14 -12 -3 -28 1 -38 10 -9 8
-19 12 -22 7z"/>
<path d="M4864 962 c-16 -10 -23 -47 -12 -66 13 -24 26 -20 26 9 0 13 -4 22
-9 19 -5 -3 -9 -1 -9 5 0 5 5 11 12 13 6 2 9 9 7 16 -2 6 -9 8 -15 4z"/>
<path d="M1746 943 c-8 -19 1 -33 20 -33 18 0 18 36 0 43 -8 3 -17 -1 -20 -10z"/>
<path d="M4139 955 c-1 -3 -2 -9 -3 -14 0 -5 -4 -13 -8 -17 -13 -12 -9 -41 7
-54 12 -10 15 -9 16 6 0 11 2 34 5 52 2 17 -1 32 -6 32 -6 0 -11 -2 -11 -5z"/>
<path d="M4228 918 c-5 -45 -1 -68 11 -68 4 0 8 25 9 55 2 65 -14 74 -20 13z"/>
<path d="M6545 950 c-3 -5 -2 -18 4 -27 7 -14 9 -12 8 10 -2 30 -3 31 -12 17z"/>
<path d="M5240 944 c0 -3 7 -12 15 -20 16 -17 18 -14 9 10 -6 15 -24 23 -24
10z"/>
<path d="M8436 914 c-8 -20 -6 -192 2 -222 4 -13 7 36 7 107 0 72 0 131 -1
131 -1 0 -5 -7 -8 -16z"/>
<path d="M8876 914 c-9 -23 -2 -28 13 -10 7 8 8 17 3 20 -6 3 -13 -1 -16 -10z"/>
<path d="M4700 900 c6 -11 13 -20 16 -20 2 0 0 9 -6 20 -6 11 -13 20 -16 20
-2 0 0 -9 6 -20z"/>
<path d="M10684 908 c-4 -6 -2 -14 4 -16 7 -2 12 -8 12 -13 0 -6 -4 -7 -10 -4
-13 8 -13 2 4 -29 12 -23 15 -24 26 -11 10 12 10 21 0 45 -15 36 -26 45 -36
28z"/>
<path d="M5707 890 c10 -11 21 -20 25 -20 4 0 0 9 -9 20 -10 11 -21 20 -25 20
-4 0 0 -9 9 -20z"/>
<path d="M1710 809 c-23 -100 -22 -114 9 -122 18 -4 21 -1 21 26 0 18 7 57 15
87 19 71 19 77 -4 90 -18 9 -21 3 -41 -81z"/>
<path d="M1796 780 c-10 -55 -17 -102 -15 -104 2 -2 12 -6 22 -8 15 -2 20 4
22 32 2 19 10 53 17 75 11 35 17 40 43 40 20 1 30 6 30 15 0 11 -10 15 -32 14
-21 -1 -33 3 -33 11 0 10 -20 25 -33 25 -1 0 -11 -45 -21 -100z"/>
<path d="M4087 854 c-22 -30 -35 -94 -18 -94 6 0 11 17 11 39 0 29 6 42 22 53
12 8 17 17 12 20 -5 3 -17 -5 -27 -18z"/>
<path d="M12215 869 c-16 -5 -59 -23 -93 -41 -62 -32 -65 -35 -92 -104 -15
-38 -35 -107 -45 -152 -14 -69 -14 -86 -3 -109 7 -14 18 -28 24 -30 12 -4 109
105 101 113 -8 8 -47 -19 -47 -32 0 -18 -42 -51 -47 -36 -3 6 -9 10 -14 6 -10
-6 -12 9 -2 20 4 3 8 16 10 28 2 12 10 29 17 37 19 23 28 69 15 73 -17 6 7
101 34 134 24 30 134 84 172 84 14 0 25 5 25 10 0 12 -14 12 -55 -1z"/>
<path d="M9868 843 c-3 -13 -2 -26 4 -29 14 -9 16 -2 8 26 -6 25 -6 25 -12 3z"/>
<path d="M10860 812 c0 -29 4 -52 9 -52 8 0 3 90 -5 99 -2 2 -4 -19 -4 -47z"/>
<path d="M6325 830 c3 -5 8 -10 11 -10 2 0 4 5 4 10 0 6 -5 10 -11 10 -5 0 -7
-4 -4 -10z"/>
<path d="M12245 829 c-4 -6 -5 -12 -2 -15 2 -3 7 2 10 11 7 17 1 20 -8 4z"/>
<path d="M1940 820 c0 -5 11 -10 24 -10 33 0 40 -26 13 -45 -12 -8 -27 -15
-33 -15 -23 0 -64 -42 -64 -65 0 -26 41 -61 59 -51 5 3 22 -1 37 -9 l29 -15
12 63 c16 86 16 123 -3 141 -17 18 -74 22 -74 6z m34 -117 c-8 -48 -19 -60
-39 -43 -20 17 -19 29 7 57 31 33 40 29 32 -14z"/>
<path d="M3925 820 c-3 -5 -1 -10 4 -10 6 0 11 5 11 10 0 6 -2 10 -4 10 -3 0
-8 -4 -11 -10z"/>
<path d="M12171 801 c-32 -36 -51 -82 -49 -125 1 -19 -5 -42 -12 -51 -7 -8 -8
-15 -2 -15 5 0 8 -9 5 -20 -3 -11 0 -20 6 -20 6 0 11 6 12 13 0 6 2 41 4 76 3
50 11 75 35 114 35 57 36 66 1 28z"/>
<path d="M2097 804 c-15 -8 -25 -20 -21 -25 3 -6 0 -47 -7 -90 -11 -69 -11
-82 2 -90 29 -18 36 -8 43 62 8 85 21 116 42 98 11 -9 14 -8 14 5 0 9 -7 19
-15 22 -8 4 -15 12 -15 20 0 17 -8 17 -43 -2z"/>
<path d="M4590 810 c-9 -6 -10 -10 -3 -10 6 0 15 5 18 10 8 12 4 12 -15 0z"/>
<path d="M4890 793 c0 -13 5 -23 10 -23 13 0 13 11 0 30 -8 12 -10 11 -10 -7z"/>
<path d="M3935 790 c3 -5 8 -10 11 -10 2 0 4 5 4 10 0 6 -5 10 -11 10 -5 0 -7
-4 -4 -10z"/>
<path d="M8870 794 c0 -3 6 -12 14 -19 17 -17 30 -7 15 12 -12 13 -29 18 -29
7z"/>
<path d="M10520 790 c0 -5 5 -10 10 -10 6 0 10 -4 10 -10 0 -5 -8 -10 -17 -10
-17 -1 -17 -1 0 -11 9 -5 17 -17 17 -26 0 -14 3 -14 12 -5 10 10 10 15 -1 21
-8 5 -9 11 -3 15 14 9 3 46 -14 46 -8 0 -14 -4 -14 -10z"/>
<path d="M4571 785 c0 -13 28 -50 33 -44 3 2 -4 15 -14 29 -11 14 -20 21 -19
15z"/>
<path d="M5147 779 c7 -7 15 -10 18 -7 3 3 -2 9 -12 12 -14 6 -15 5 -6 -5z"/>
<path d="M3962 763 c0 -5 -2 -16 -6 -25 -5 -10 -1 -27 9 -42 19 -29 35 -34 35
-11 0 8 -4 15 -10 15 -5 0 -10 5 -10 11 0 5 5 7 10 4 11 -7 13 15 4 39 -6 16
-36 23 -32 9z"/>
<path d="M2195 738 c-48 -42 -43 -140 8 -167 30 -16 79 -19 84 -5 2 7 -7 12
-23 12 -25 0 -54 24 -54 44 0 5 20 17 44 28 51 22 72 50 57 79 -21 38 -77 42
-116 9z m82 -15 c5 -15 -44 -66 -56 -59 -10 7 -3 45 12 64 12 15 39 12 44 -5z"/>
<path d="M4025 750 c-3 -5 -2 -10 4 -10 5 0 13 5 16 10 3 6 2 10 -4 10 -5 0
-13 -4 -16 -10z"/>
<path d="M6506 747 c3 -10 9 -15 12 -12 3 3 0 11 -7 18 -10 9 -11 8 -5 -6z"/>
<path d="M4090 729 c7 -11 14 -19 16 -16 7 7 -7 37 -17 37 -6 0 -5 -9 1 -21z"/>
<path d="M14615 725 l-25 -24 0 -271 0 -271 25 -24 24 -25 271 0 271 0 24 25
25 24 0 271 0 271 -25 24 -24 25 -271 0 -271 0 -24 -25z m440 -280 l0 -100
-50 -3 c-40 -3 -55 -9 -72 -30 l-23 -27 -22 27 c-18 21 -33 27 -73 30 l-50 3
-3 89 c-2 49 0 96 2 103 4 11 35 13 148 11 l143 -3 0 -100z"/>
<path d="M14820 445 c0 -8 7 -15 15 -15 8 0 15 7 15 15 0 8 -7 15 -15 15 -8 0
-15 -7 -15 -15z"/>
<path d="M14893 448 c2 -7 10 -13 17 -13 7 0 15 6 18 13 2 7 -5 12 -18 12 -13
0 -20 -5 -17 -12z"/>
<path d="M14970 445 c0 -8 7 -15 15 -15 8 0 15 7 15 15 0 8 -7 15 -15 15 -8 0
-15 -7 -15 -15z"/>
<path d="M4320 731 c0 -6 4 -13 10 -16 6 -3 7 1 4 9 -7 18 -14 21 -14 7z"/>
<path d="M6536 731 c-3 -5 1 -14 8 -20 12 -10 13 -8 9 8 -6 23 -9 25 -17 12z"/>
<path d="M9090 726 c0 -8 -6 -17 -12 -19 -8 -3 -6 -6 5 -6 11 -1 17 6 17 19 0
11 -2 20 -5 20 -3 0 -5 -6 -5 -14z"/>
<path d="M2350 709 c-16 -29 -5 -65 25 -85 50 -32 17 -92 -35 -64 -13 7 -20 7
-20 1 0 -14 34 -31 60 -31 24 0 70 42 70 65 0 8 -16 33 -36 55 -40 44 -37 65
7 56 30 -6 40 8 13 18 -34 13 -73 6 -84 -15z"/>
<path d="M4116 679 c-3 -17 -2 -38 4 -47 10 -19 10 -19 16 46 3 41 -11 42 -20
1z"/>
<path d="M4210 685 c0 -14 5 -25 10 -25 6 0 10 -5 10 -11 0 -5 -4 -7 -10 -4
-5 3 -10 -1 -10 -9 0 -18 16 -21 25 -6 8 13 -5 80 -16 80 -5 0 -9 -11 -9 -25z"/>
<path d="M4830 700 c0 -5 7 -10 15 -10 8 0 15 5 15 10 0 6 -7 10 -15 10 -8 0
-15 -4 -15 -10z"/>
<path d="M13107 703 c-13 -12 -7 -32 7 -27 19 7 29 34 12 34 -7 0 -16 -3 -19
-7z"/>
<path d="M13160 695 c0 -8 6 -15 14 -15 8 0 16 7 20 15 4 10 -1 15 -14 15 -11
0 -20 -7 -20 -15z"/>
<path d="M1440 599 c0 -129 19 -124 23 6 1 63 -2 89 -10 92 -10 4 -13 -20 -13
-98z"/>
<path d="M5220 691 c0 -6 5 -13 10 -16 6 -3 10 1 10 9 0 9 -4 16 -10 16 -5 0
-10 -4 -10 -9z"/>
<path d="M6530 689 c0 -20 16 -43 23 -32 3 4 -1 17 -9 28 -10 13 -14 15 -14 4z"/>
<path d="M10882 675 c0 -16 2 -22 5 -12 2 9 2 23 0 30 -3 6 -5 -1 -5 -18z"/>
<path d="M13215 680 c3 -5 8 -10 11 -10 2 0 4 5 4 10 0 6 -5 10 -11 10 -5 0
-7 -4 -4 -10z"/>
<path d="M1490 643 c0 -43 5 -41 13 5 4 18 2 32 -3 32 -6 0 -10 -16 -10 -37z"/>
<path d="M4820 670 c0 -19 13 -40 25 -40 21 0 15 46 -6 47 -11 1 -19 -2 -19
-7z"/>
<path d="M8886 664 c-9 -22 -8 -24 9 -18 8 4 15 12 15 20 0 19 -16 18 -24 -2z"/>
<path d="M13045 670 c-3 -5 1 -10 9 -10 9 0 16 5 16 10 0 6 -4 10 -9 10 -6 0
-13 -4 -16 -10z"/>
<path d="M5670 665 c0 -3 9 -16 21 -28 l20 -22 -9 24 c-8 23 -32 42 -32 26z"/>
<path d="M10710 660 c0 -5 7 -10 15 -10 8 0 15 5 15 10 0 6 -7 10 -15 10 -8 0
-15 -4 -15 -10z"/>
<path d="M1546 638 c-9 -37 -7 -118 4 -118 6 0 10 6 10 13 0 7 14 35 31 61 33
52 32 71 -2 40 -21 -19 -22 -19 -15 4 5 16 3 22 -7 22 -8 0 -17 -10 -21 -22z"/>
<path d="M8447 653 c-4 -3 -7 -36 -7 -71 0 -82 9 -75 17 12 5 64 4 73 -10 59z"/>
<path d="M13170 642 c0 -11 12 -22 33 -30 29 -10 30 -10 13 3 -11 8 -24 15
-29 15 -5 0 -4 7 3 15 10 12 10 15 -4 15 -9 0 -16 -8 -16 -18z"/>
<path d="M4005 640 c3 -5 8 -10 11 -10 2 0 4 5 4 10 0 6 -5 10 -11 10 -5 0 -7
-4 -4 -10z"/>
<path d="M5855 640 c3 -5 8 -10 11 -10 2 0 4 5 4 10 0 6 -5 10 -11 10 -5 0 -7
-4 -4 -10z"/>
<path d="M1703 612 c-3 -9 -19 -50 -36 -90 -32 -80 -29 -96 19 -90 26 3 32 10
52 68 27 78 25 110 -6 121 -17 7 -24 5 -29 -9z m31 -44 c-8 -28 -12 -33 -20
-25 -9 8 6 47 17 47 6 0 7 -10 3 -22z m-24 -69 c0 -6 -5 -19 -11 -30 -15 -28
-31 -13 -17 16 11 25 28 34 28 14z"/>
<path d="M4075 612 c-27 -22 -36 -48 -29 -78 10 -40 24 -27 24 23 0 25 3 43 7
40 7 -8 33 11 33 24 0 13 -13 10 -35 -9z"/>
<path d="M6495 619 c-4 -6 -5 -12 -2 -15 2 -3 7 2 10 11 7 17 1 20 -8 4z"/>
<path d="M10892 585 c0 -16 4 -41 8 -55 8 -24 8 -24 8 5 0 17 -4 41 -8 55 -8
24 -8 24 -8 -5z"/>
<path d="M1783 523 c-12 -43 -24 -86 -28 -95 -5 -13 0 -19 20 -24 31 -8 42 0
26 20 -15 18 -4 66 15 66 16 0 18 12 4 26 -13 13 -1 54 16 54 8 0 14 5 14 10
0 6 -4 10 -9 10 -5 0 -15 2 -23 5 -9 4 -19 -18 -35 -72z"/>
<path d="M4235 590 c3 -5 8 -10 11 -10 2 0 4 5 4 10 0 6 -5 10 -11 10 -5 0 -7
-4 -4 -10z"/>
<path d="M5110 590 c0 -6 7 -10 15 -10 8 0 15 2 15 4 0 2 -7 6 -15 10 -8 3
-15 1 -15 -4z"/>
<path d="M1501 574 c-2 -40 11 -84 25 -84 15 0 18 12 7 24 -5 4 -13 24 -19 44
-8 25 -12 30 -13 16z"/>
<path d="M4510 586 c0 -2 7 -7 16 -10 8 -3 12 -2 9 4 -6 10 -25 14 -25 6z"/>
<path d="M6312 576 c7 -8 15 -12 17 -11 5 6 -10 25 -20 25 -5 0 -4 -6 3 -14z"/>
<path d="M10756 581 c-7 -10 28 -44 37 -35 7 7 -14 44 -25 44 -4 0 -9 -4 -12
-9z"/>
<path d="M13208 574 c12 -8 29 -30 37 -47 11 -24 13 -26 9 -7 -7 28 -42 70
-58 70 -6 0 0 -7 12 -16z"/>
<path d="M13251 573 c7 -12 15 -20 18 -17 3 2 -3 12 -13 22 -17 16 -18 16 -5
-5z"/>
<path d="M1877 573 c-4 -3 -2 -12 3 -18 7 -9 5 -37 -6 -89 -10 -42 -14 -79
-10 -83 12 -12 24 17 36 86 7 39 18 70 28 77 15 11 14 14 -11 23 -33 13 -32
13 -40 4z"/>
<path d="M8845 570 c4 -6 11 -8 16 -5 14 9 11 15 -7 15 -8 0 -12 -5 -9 -10z"/>
<path d="M5145 558 c4 -10 3 -18 -3 -18 -6 0 -12 6 -15 13 -2 6 -8 9 -12 5 -8
-8 12 -38 25 -38 14 0 21 33 10 44 -8 8 -9 6 -5 -6z"/>
<path d="M13009 553 c-13 -16 -12 -17 4 -4 16 13 21 21 13 21 -2 0 -10 -8 -17
-17z"/>
<path d="M1955 552 c-3 -3 -1 -10 4 -16 6 -7 4 -34 -5 -71 -7 -33 -14 -70 -14
-82 0 -45 15 -21 32 50 10 39 25 77 34 84 9 6 13 16 10 21 -7 11 -53 22 -61
14z"/>
<path d="M4568 553 c7 -3 16 -2 19 1 4 3 -2 6 -13 5 -11 0 -14 -3 -6 -6z"/>
<path d="M4870 549 c0 -20 16 -43 23 -32 3 4 -1 17 -9 28 -10 13 -14 15 -14 4z"/>
<path d="M5930 551 c0 -5 5 -13 10 -16 6 -3 10 -2 10 4 0 5 -4 13 -10 16 -5 3
-10 2 -10 -4z"/>
<path d="M10555 550 c-3 -5 -1 -10 4 -10 6 0 11 -7 11 -16 0 -10 -6 -14 -15
-10 -23 9 -17 -7 10 -27 22 -15 25 -16 25 -2 0 8 -4 15 -9 15 -4 0 -6 11 -4
24 5 25 -11 44 -22 26z"/>
<path d="M8895 534 c9 -9 19 -13 23 -10 3 4 0 11 -8 16 -24 15 -33 11 -15 -6z"/>
<path d="M13017 526 c-28 -30 -32 -41 -19 -50 12 -7 54 52 49 67 -2 7 -14 0
-30 -17z"/>
<path d="M5742 520 c0 -14 2 -19 5 -12 2 6 2 18 0 25 -3 6 -5 1 -5 -13z"/>
<path d="M10803 502 c5 -39 4 -42 -11 -30 -10 7 -14 8 -10 4 4 -5 3 -15 -4
-23 -8 -10 -8 -17 0 -25 9 -9 12 -9 12 0 0 16 16 15 18 0 14 -96 14 -98 -2
-92 -20 8 -21 -9 -2 -25 11 -9 15 -9 20 1 3 7 4 -5 2 -27 -2 -25 2 -45 10 -53
8 -8 12 -32 11 -66 -1 -30 1 -52 6 -49 4 2 7 -3 7 -11 0 -19 -11 -21 -28 -4
-9 9 -12 9 -12 -3 0 -24 21 -40 36 -28 10 8 11 1 8 -30 -4 -36 -2 -41 16 -41
23 0 23 0 9 37 -11 29 -24 105 -34 208 -3 33 -10 74 -15 90 -5 17 -14 67 -19
113 -5 46 -12 86 -16 90 -4 4 -5 -12 -2 -36z"/>
<path d="M12030 531 c0 -6 4 -13 10 -16 6 -3 7 1 4 9 -7 18 -14 21 -14 7z"/>
<path d="M2027 440 c-15 -50 -25 -95 -22 -100 7 -11 55 -14 55 -4 0 4 -7 12
-16 18 -12 9 -13 17 -5 39 6 15 17 27 26 27 17 0 21 16 4 22 -19 6 1 58 22 58
23 0 25 16 3 24 -33 12 -40 3 -67 -84z"/>
<path d="M4550 522 c0 -10 41 -35 48 -28 3 3 0 6 -6 6 -7 0 -12 7 -12 15 0 8
-7 15 -15 15 -8 0 -15 -3 -15 -8z"/>
<path d="M6270 519 c0 -5 5 -7 10 -4 6 3 10 8 10 11 0 2 -4 4 -10 4 -5 0 -10
-5 -10 -11z"/>
<path d="M3995 510 c-3 -5 -2 -10 4 -10 5 0 13 5 16 10 3 6 2 10 -4 10 -5 0
-13 -4 -16 -10z"/>
<path d="M2123 417 c-17 -51 -28 -96 -23 -101 5 -5 15 7 24 28 19 46 28 46 24
-1 -2 -22 2 -38 10 -40 8 -3 12 9 12 41 0 27 5 48 14 53 7 4 19 26 26 47 11
35 11 41 -6 53 -37 27 -48 16 -81 -80z m67 56 c-1 -25 -14 -53 -26 -53 -7 0
-11 7 -9 15 3 8 7 22 10 30 4 15 25 21 25 8z"/>
<path d="M4077 503 c-7 -11 10 -40 18 -31 4 4 3 14 -3 24 -5 9 -12 12 -15 7z"/>
<path d="M5170 501 c0 -6 4 -13 10 -16 6 -3 7 1 4 9 -7 18 -14 21 -14 7z"/>
<path d="M6490 501 c0 -6 4 -13 10 -16 6 -3 7 1 4 9 -7 18 -14 21 -14 7z"/>
<path d="M8432 480 c0 -19 2 -27 5 -17 2 9 2 25 0 35 -3 9 -5 1 -5 -18z"/>
<path d="M13036 485 c-9 -13 -16 -27 -16 -30 0 -6 38 -45 44 -45 2 0 6 9 9 20
3 13 14 20 28 20 22 0 22 0 3 -15 -17 -13 -17 -14 -1 -15 21 0 23 -20 2 -20
-8 0 -15 -5 -15 -11 0 -11 16 -9 53 6 27 11 20 -13 -8 -27 -24 -13 -24 -15 -9
-36 20 -28 35 -28 64 3 14 15 18 25 11 25 -8 0 -11 6 -7 16 7 19 -71 115 -89
108 -7 -3 -15 2 -18 10 -9 24 -33 19 -51 -9z"/>
<path d="M2876 493 c-3 -3 -6 -25 -6 -49 0 -23 -9 -70 -20 -105 -32 -108 -41
-183 -25 -232 33 -105 35 -107 87 -107 l47 0 -22 33 c-18 26 -21 43 -19 90 3
40 8 57 18 57 14 0 17 -7 37 -110 l13 -65 228 -3 229 -2 -7 98 -7 98 33 14
c25 11 34 22 36 44 2 16 0 32 -5 36 -11 11 -302 -6 -435 -25 -59 -8 -114 -12
-122 -9 -9 4 -16 18 -16 34 0 15 -6 45 -14 67 -8 23 -12 58 -9 85 5 42 -5 66
-21 51z"/>
<path d="M4845 479 c-4 -6 -5 -12 -2 -15 2 -3 7 2 10 11 7 17 1 20 -8 4z"/>
<path d="M6526 481 c-4 -5 -2 -12 3 -15 5 -4 12 -2 15 3 4 5 2 12 -3 15 -5 4
-12 2 -15 -3z"/>
<path d="M6855 460 c3 -5 8 -10 11 -10 2 0 4 5 4 10 0 6 -5 10 -11 10 -5 0 -7
-4 -4 -10z"/>
<path d="M3910 450 c-13 -8 -12 -10 3 -10 9 0 17 5 17 10 0 12 -1 12 -20 0z"/>
<path d="M4805 450 c-3 -5 -1 -10 4 -10 6 0 11 -7 11 -16 0 -8 4 -13 9 -10 11
7 2 46 -10 46 -4 0 -11 -4 -14 -10z"/>
<path d="M5200 443 c0 -5 5 -15 10 -23 8 -12 10 -11 10 8 0 12 -4 22 -10 22
-5 0 -10 -3 -10 -7z"/>
<path d="M6520 430 c0 -12 7 -20 16 -20 13 0 14 3 5 13 -6 8 -8 17 -4 20 3 4
1 7 -5 7 -7 0 -12 -9 -12 -20z"/>
<path d="M11341 434 c0 -11 3 -14 6 -6 3 7 2 16 -1 19 -3 4 -6 -2 -5 -13z"/>
<path d="M4108 434 c-5 -4 -8 -17 -8 -28 0 -21 -36 -52 -55 -48 -5 1 -15 -10
-22 -23 -6 -14 -7 -25 -2 -25 5 0 11 -11 15 -25 9 -36 24 -20 24 24 0 30 4 40
20 44 10 3 21 2 23 -2 2 -3 2 0 0 7 -1 7 2 22 8 33 11 22 9 56 -3 43z"/>
<path d="M5668 433 c7 -3 16 -2 19 1 4 3 -2 6 -13 5 -11 0 -14 -3 -6 -6z"/>
<path d="M8902 419 c-7 -10 -8 -19 -3 -19 13 0 33 28 23 33 -4 3 -13 -3 -20
-14z"/>
<path d="M4800 407 c0 -17 5 -27 15 -27 19 0 19 9 0 34 -14 19 -15 19 -15 -7z"/>
<path d="M5800 426 c0 -2 7 -7 16 -10 8 -3 12 -2 9 4 -6 10 -25 14 -25 6z"/>
<path d="M8416 384 c-14 -102 -2 -412 14 -368 4 11 4 44 -1 74 -5 30 -7 119
-5 198 3 78 3 142 2 142 -2 0 -6 -21 -10 -46z"/>
<path d="M10742 421 c4 -13 18 -16 19 -4 0 4 -5 9 -11 12 -7 2 -11 -2 -8 -8z"/>
<path d="M5650 411 c0 -10 28 -41 36 -41 2 0 -3 11 -12 25 -17 26 -24 31 -24
16z"/>
<path d="M4190 394 c0 -8 5 -12 10 -9 6 3 10 10 10 16 0 5 -4 9 -10 9 -5 0
-10 -7 -10 -16z"/>
<path d="M5837 389 c7 -7 15 -10 18 -7 3 3 -2 9 -12 12 -14 6 -15 5 -6 -5z"/>
<path d="M8450 371 c0 -17 4 -33 10 -36 5 -3 9 9 8 30 -2 42 -18 48 -18 6z"/>
<path d="M10748 392 c-15 -6 -15 -9 3 -31 16 -20 22 -22 29 -11 7 11 -4 52
-13 49 -1 0 -10 -3 -19 -7z"/>
<path d="M12033 367 c-22 -31 -22 -34 -7 -92 23 -91 20 -86 49 -73 14 6 25 18
25 27 0 18 -36 161 -42 166 -2 2 -13 -11 -25 -28z"/>
<path d="M6486 373 c-6 -14 -5 -15 5 -6 7 7 10 15 7 18 -3 3 -9 -2 -12 -12z"/>
<path d="M5160 370 c-8 -5 -12 -12 -9 -15 4 -3 12 1 19 10 14 17 11 19 -10 5z"/>
<path d="M4835 350 c3 -5 8 -10 11 -10 2 0 4 5 4 10 0 6 -5 10 -11 10 -5 0 -7
-4 -4 -10z"/>
<path d="M10932 340 c0 -14 4 -38 8 -55 7 -27 8 -27 8 -5 0 14 -4 39 -8 55 -7
27 -8 27 -8 5z"/>
<path d="M4867 343 c-4 -3 -7 -11 -7 -17 0 -6 5 -5 12 2 6 6 9 14 7 17 -3 3
-9 2 -12 -2z"/>
<path d="M6932 335 c0 -11 3 -29 8 -40 11 -25 11 1 0 35 -6 20 -8 21 -8 5z"/>
<path d="M6295 330 c3 -5 8 -10 11 -10 2 0 4 5 4 10 0 6 -5 10 -11 10 -5 0 -7
-4 -4 -10z"/>
<path d="M8857 329 c7 -7 15 -10 18 -7 3 3 -2 9 -12 12 -14 6 -15 5 -6 -5z"/>
<path d="M6627 319 c7 -7 15 -10 18 -7 3 3 -2 9 -12 12 -14 6 -15 5 -6 -5z"/>
<path d="M12940 326 c0 -2 8 -10 18 -17 15 -13 16 -12 3 4 -13 16 -21 21 -21
13z"/>
<path d="M4550 310 c-13 -8 -12 -10 3 -10 9 0 17 5 17 10 0 12 -1 12 -20 0z"/>
<path d="M5080 312 c0 -14 39 -46 47 -39 3 4 -4 16 -17 27 -26 22 -30 24 -30
12z"/>
<path d="M4700 300 c0 -5 5 -10 11 -10 5 0 7 5 4 10 -3 6 -8 10 -11 10 -2 0
-4 -4 -4 -10z"/>
<path d="M4850 298 c0 -8 7 -21 15 -28 19 -16 19 -1 0 24 -12 16 -15 17 -15 4z"/>
<path d="M5910 303 c0 -5 5 -15 10 -23 8 -12 10 -11 10 8 0 12 -4 22 -10 22
-5 0 -10 -3 -10 -7z"/>
<path d="M8900 301 c0 -5 7 -14 15 -21 16 -14 18 -10 9 14 -6 17 -24 22 -24 7z"/>
<path d="M10580 301 c0 -5 6 -12 13 -14 9 -4 8 -8 -3 -16 -13 -9 -13 -12 2
-28 10 -9 21 -13 25 -9 4 4 1 12 -7 17 -10 7 -11 12 -4 15 16 7 5 44 -12 44
-8 0 -14 -4 -14 -9z"/>
<path d="M5721 284 c0 -11 3 -14 6 -6 3 7 2 16 -1 19 -3 4 -6 -2 -5 -13z"/>
<path d="M3921 266 c-12 -22 -11 -27 12 -52 l26 -27 -1 31 c-1 20 -6 32 -15
32 -8 0 -11 5 -8 10 4 6 11 7 17 4 6 -4 9 -1 6 6 -7 23 -24 21 -37 -4z"/>
<path d="M4096 273 c-6 -14 -5 -15 5 -6 7 7 10 15 7 18 -3 3 -9 -2 -12 -12z"/>
<path d="M11977 257 c-10 -18 -16 -39 -13 -47 27 -77 24 -73 47 -52 20 19 20
21 4 76 -9 31 -17 56 -18 56 -2 0 -10 -15 -20 -33z"/>
<path d="M3980 269 c0 -5 5 -7 10 -4 6 3 10 8 10 11 0 2 -4 4 -10 4 -5 0 -10
-5 -10 -11z"/>
<path d="M4527 266 c-4 -10 -1 -13 8 -9 8 3 18 -2 21 -11 3 -9 10 -14 15 -11
8 6 -20 45 -32 45 -4 0 -9 -7 -12 -14z"/>
<path d="M4064 244 c3 -9 6 -18 6 -20 0 -2 7 -4 15 -4 13 0 13 3 3 20 -15 24
-33 27 -24 4z"/>
<path d="M5140 256 c0 -2 7 -9 15 -16 13 -11 14 -10 9 4 -5 14 -24 23 -24 12z"/>
<path d="M6953 220 c0 -25 2 -35 4 -22 2 12 2 32 0 45 -2 12 -4 2 -4 -23z"/>
<path d="M4827 243 c-4 -3 -7 -11 -7 -17 0 -6 5 -5 12 2 6 6 9 14 7 17 -3 3
-9 2 -12 -2z"/>
<path d="M6520 220 c0 -5 4 -10 9 -10 6 0 13 5 16 10 3 6 -1 10 -9 10 -9 0
-16 -4 -16 -10z"/>
<path d="M10810 211 c-6 -12 -6 -22 -1 -26 6 -3 15 3 21 14 6 12 6 22 1 26 -6
3 -15 -3 -21 -14z"/>
<path d="M3875 210 c-3 -5 1 -10 9 -10 9 0 16 5 16 10 0 6 -4 10 -9 10 -6 0
-13 -4 -16 -10z"/>
<path d="M4171 204 c0 -11 3 -14 6 -6 3 7 2 16 -1 19 -3 4 -6 -2 -5 -13z"/>
<path d="M6846 207 c3 -10 9 -15 12 -12 3 3 0 11 -7 18 -10 9 -11 8 -5 -6z"/>
<path d="M10952 200 c0 -14 2 -19 5 -12 2 6 2 18 0 25 -3 6 -5 1 -5 -13z"/>
<path d="M4776 184 c-5 -19 0 -36 16 -60 12 -18 24 -31 27 -29 2 3 -2 11 -9
20 -7 8 -10 25 -6 40 5 20 3 23 -11 18 -16 -6 -16 -4 1 15 16 18 16 22 4 22
-9 0 -19 -12 -22 -26z"/>
<path d="M6510 183 c0 -11 7 -24 16 -27 26 -10 28 1 5 25 -21 22 -21 22 -21 2z"/>
<path d="M4080 166 c0 -13 -7 -29 -15 -36 -16 -13 -20 -30 -7 -30 10 0 42 58
42 76 0 8 -4 14 -10 14 -5 0 -10 -11 -10 -24z"/>
<path d="M8916 174 c-9 -24 -7 -27 9 -10 17 17 19 26 6 26 -5 0 -12 -7 -15
-16z"/>
<path d="M10775 179 c-10 -15 3 -25 16 -12 7 7 7 13 1 17 -6 3 -14 1 -17 -5z"/>
<path d="M4160 163 c0 -13 5 -23 10 -23 13 0 13 11 0 30 -8 12 -10 11 -10 -7z"/>
<path d="M4450 166 c0 -8 4 -17 9 -20 5 -4 7 3 4 14 -6 23 -13 26 -13 6z"/>
<path d="M5790 174 c0 -12 38 -50 44 -43 2 2 -7 15 -20 29 -13 13 -24 20 -24
14z"/>
<path d="M9847 169 c7 -7 15 -10 18 -7 3 3 -2 9 -12 12 -14 6 -15 5 -6 -5z"/>
<path d="M4290 160 c0 -5 5 -10 11 -10 5 0 7 5 4 10 -3 6 -8 10 -11 10 -2 0
-4 -4 -4 -10z"/>
<path d="M5627 164 c-3 -4 3 -15 13 -27 26 -27 34 -19 10 10 -9 12 -20 20 -23
17z"/>
<path d="M10966 125 c3 -27 10 -57 15 -65 12 -21 10 -3 -6 60 l-15 55 6 -50z"/>
<path d="M11945 141 c-7 -35 -3 -47 14 -36 13 8 14 35 2 54 -6 10 -11 5 -16
-18z"/>
<path d="M10798 148 c20 -20 13 -32 -8 -13 -22 20 -26 9 -6 -17 16 -22 22 -22
30 -3 7 19 -3 45 -17 45 -7 0 -7 -4 1 -12z"/>
<path d="M8462 111 c-1 -22 2 -42 6 -45 5 -3 9 15 11 40 1 24 -2 44 -7 44 -5
0 -9 -18 -10 -39z"/>
<path d="M4453 123 c-15 -5 -17 -23 -4 -23 5 0 11 7 15 15 3 8 4 15 3 14 -1 0
-8 -3 -14 -6z"/>
<path d="M6942 105 c-1 -16 -5 -48 -7 -70 -5 -35 -4 -37 5 -15 6 13 9 45 7 70
-2 28 -4 34 -5 15z"/>
<path d="M3995 91 c-11 -22 -12 -32 -3 -37 7 -4 8 -3 4 4 -4 7 -3 12 3 12 5 0
11 -10 13 -22 3 -25 24 -27 22 -3 -1 8 2 12 8 9 8 -5 1 40 -9 59 -8 15 -23 6
-38 -22z"/>
<path d="M5010 116 c0 -2 7 -7 16 -10 8 -3 12 -2 9 4 -6 10 -25 14 -25 6z"/>
<path d="M5331 111 c-7 -5 -11 -13 -7 -19 3 -6 2 -13 -4 -17 -5 -3 -10 -19
-10 -35 0 -25 15 -40 40 -40 13 0 28 64 23 94 -6 27 -18 32 -42 17z"/>
<path d="M5860 111 c0 -5 7 -12 16 -15 14 -5 15 -4 4 9 -14 17 -20 19 -20 6z"/>
<path d="M5745 99 c-4 -6 -5 -12 -2 -15 2 -3 7 2 10 11 7 17 1 20 -8 4z"/>
<path d="M5090 86 c0 -8 4 -17 9 -20 5 -4 7 3 4 14 -6 23 -13 26 -13 6z"/>
<path d="M5211 84 c0 -11 3 -14 6 -6 3 7 2 16 -1 19 -3 4 -6 -2 -5 -13z"/>
<path d="M11352 84 c10 -10 20 -16 22 -13 3 3 -5 11 -17 18 -21 13 -21 12 -5
-5z"/>
<path d="M8875 80 c3 -5 8 -10 11 -10 2 0 4 5 4 10 0 6 -5 10 -11 10 -5 0 -7
-4 -4 -10z"/>
<path d="M6628 63 c7 -3 16 -2 19 1 4 3 -2 6 -13 5 -11 0 -14 -3 -6 -6z"/>
<path d="M10620 63 c0 -3 7 -15 17 -25 9 -10 13 -21 9 -25 -4 -4 -11 -1 -16 7
-8 13 -10 12 -10 -2 0 -18 25 -25 34 -9 6 10 -16 61 -26 61 -5 0 -8 -3 -8 -7z"/>
<path d="M4525 50 c4 -6 11 -8 16 -5 14 9 11 15 -7 15 -8 0 -12 -5 -9 -10z"/>
<path d="M4827 46 c-3 -8 1 -20 9 -27 20 -16 23 -9 9 19 -10 18 -14 20 -18 8z"/>
<path d="M5070 41 c13 -26 27 -34 35 -21 3 5 1 10 -4 10 -6 0 -11 7 -11 15 0
8 -7 15 -15 15 -12 0 -14 -4 -5 -19z"/>
<path d="M5896 52 c-2 -4 -1 -14 5 -22 7 -12 9 -10 9 8 0 23 -5 28 -14 14z"/>
<path d="M8925 44 c9 -9 19 -13 23 -10 3 4 0 11 -8 16 -24 15 -33 11 -15 -6z"/>
<path d="M3876 35 c-9 -23 1 -35 28 -35 18 0 23 5 22 22 -1 28 -40 37 -50 13z
m34 -15 c0 -5 -4 -10 -10 -10 -5 0 -10 5 -10 10 0 6 5 10 10 10 6 0 10 -4 10
-10z"/>
<path d="M3950 29 c0 -5 5 -7 10 -4 6 3 10 8 10 11 0 2 -4 4 -10 4 -5 0 -10
-5 -10 -11z"/>
<path d="M5700 35 c0 -5 5 -17 10 -25 5 -8 10 -11 10 -5 0 6 -5 17 -10 25 -5
8 -10 11 -10 5z"/>
<path d="M9126 32 c-2 -4 -1 -14 5 -22 7 -12 9 -10 9 8 0 23 -5 28 -14 14z"/>
<path d="M12792 20 c-10 -17 -10 -20 3 -20 8 0 15 9 15 20 0 11 -1 20 -3 20
-1 0 -8 -9 -15 -20z"/>
<path d="M4510 22 c0 -5 7 -13 16 -16 10 -4 14 -1 12 6 -5 15 -28 23 -28 10z"/>
<path d="M15160 21 c0 -6 4 -13 10 -16 6 -3 7 1 4 9 -7 18 -14 21 -14 7z"/>
<path d="M4040 10 c0 -5 5 -10 10 -10 6 0 10 5 10 10 0 6 -4 10 -10 10 -5 0
-10 -4 -10 -10z"/>
<path d="M4210 10 c0 -5 5 -10 11 -10 5 0 7 5 4 10 -3 6 -8 10 -11 10 -2 0 -4
-4 -4 -10z"/>
</g>
</svg>
